{
  "asset": {
    "generator": "3D Builder",
    "version": "2.0",
    "extras": {
      "textureLod": "D Blok .lod.json"
    }
  },
  "scene": 0,
  "scenes": [
    {
      "nodes": [
        0
      ]
    }
  ],
  "nodes": [
    {
      "mesh": 0,
      "matrix": [
        0.9999999403953552,
        0,
        0,
        0,
        0,
        -1.1920928244535389e-07,
        -0.9999998211860657,
        0,
        0,
        0.9999998211860657,
        -1.1920928244535389e-07,
        0,
        0,
        0.06181469187140465,
        -7.3688863899690205e-09,
        1
      ]
    }
  ],
  "meshes": [
    {
      "primitives": [
        {
          "attributes": {
            "POSITION": 0,
            "TEXCOORD_0": 8
          },
          "mode": 4,
          "indices": 16,
          "material": 0
        },
        {
          "attributes": {
            "POSITION": 1,
            "TEXCOORD_0": 9
          },
          "mode": 4,
          "indices": 17,
          "material": 1
        },
        {
          "attributes": {
            "POSITION": 2,
            "TEXCOORD_0": 10
          },
          "mode": 4,
          "indices": 18,
          "material": 2
        },
        {
          "attributes": {
            "POSITION": 3,
            "TEXCOORD_0": 11
          },
          "mode": 4,
          "indices": 19,
          "material": 3
        },
        {
          "attributes": {
            "POSITION": 4,
            "TEXCOORD_0": 12
          },
          "mode": 4,
          "indices": 20,
          "material": 4
        },
        {
          "attributes": {
            "POSITION": 5,
            "TEXCOORD_0": 13
          },
          "mode": 4,
          "indices": 21,
          "material": 5
        },
        {
          "attributes": {
            "POSITION": 6,
            "TEXCOORD_0": 14
          },
          "mode": 4,
          "indices": 22,
          "material": 6
        },
        {
          "attributes": {
            "POSITION": 7,
            "COLOR_0": 15
          },
          "mode": 4,
          "indices": 23
        }
      ]
    }
  ],
  "materials": [
    {
      "pbrMetallicRoughness": {
        "baseColorFactor": [
          1,
          1,
          1,
          1
        ],
        "metallicFactor": 0,
        "roughnessFactor": 1,
        "baseColorTexture": {
          "index": 0,
          "texCoord": 0
        }
      },
      "alphaMode": "OPAQUE"
    },
    {
      "pbrMetallicRoughness": {
        "baseColorFactor": [
          1,
          1,
          1,
          1
        ],
        "metallicFactor": 0,
        "roughnessFactor": 1,
        "baseColorTexture": {
          "index": 1,
          "texCoord": 0
        }
      },
      "alphaMode": "OPAQUE"
    },
    {
      "pbrMetallicRoughness": {
        "baseColorFactor": [
          1,
          1,
          1,
          1
        ],
        "metallicFactor": 0,
        "roughnessFactor": 1,
        "baseColorTexture": {
          "index": 2,
          "texCoord": 0
        }
      },
      "alphaMode": "OPAQUE"
    },
    {
      "pbrMetallicRoughness": {
        "baseColorFactor": [
          1,
          1,
          1,
          1
        ],
        "metallicFactor": 0,
        "roughnessFactor": 1,
        "baseColorTexture": {
          "index": 3,
          "texCoord": 0
        }
      },
      "alphaMode": "OPAQUE"
    },
    {
      "pbrMetallicRoughness": {
        "baseColorFactor": [
          1,
          1,
          1,
          1
        ],
        "metallicFactor": 0,
        "roughnessFactor": 1,
        "baseColorTexture": {
          "index": 4,
          "texCoord": 0
        }
      },
      "alphaMode": "OPAQUE"
    },
    {
      "pbrMetallicRoughness": {
        "baseColorFactor": [
          1,
          1,
          1,
          1
        ],
        "metallicFactor": 0,
        "roughnessFactor": 1,
        "baseColorTexture": {
          "index": 5,
          "texCoord": 0
        }
      },
      "alphaMode": "OPAQUE"
    },
    {
      "pbrMetallicRoughness": {
        "baseColorFactor": [
          1,
          1,
          1,
          1
        ],
        "metallicFactor": 0,
        "roughnessFactor": 1,
        "baseColorTexture": {
          "index": 6,
          "texCoord": 0
        }
      },
      "alphaMode": "OPAQUE"
    }
  ],
  "textures": [
    {
      "source": 0,
      "sampler": 0
    },
    {
      "source": 1,
      "sampler": 0
    },
    {
      "source": 2,
      "sampler": 0
    },
    {
      "source": 3,
      "sampler": 0
    },
    {
      "source": 4,
      "sampler": 0
    },
    {
      "source": 5,
      "sampler": 0
    },
    {
      "source": 6,
      "sampler": 0
    }
  ],
  "images": [
    {
      "uri": "D Blok .lod/low/image_000.jpg"
    },
    {
      "uri": "D Blok .lod/low/image_001.jpg"
    },
    {
      "uri": "D Blok .lod/low/image_002.jpg"
    },
    {
      "uri": "D Blok .lod/low/image_003.jpg"
    },
    {
      "uri": "D Blok .lod/low/image_004.jpg"
    },
    {
      "uri": "D Blok .lod/low/image_005.jpg"
    },
    {
      "uri": "D Blok .lod/low/image_006.jpg"
    }
  ],
  "samplers": [
    {
      "magFilter": 9729,
      "wrapS": 10497,
      "wrapT": 10497
    }
  ],
  "accessors": [
    {
      "bufferView": 0,
      "byteOffset": 0,
      "count": 125767,
      "componentType": 5126,
      "type": "VEC3",
      "min": [
        -0.09517550468444824,
        -0.09177520126104355,
        -0.061716001480817795
      ],
      "max": [
        0.093653604388237,
        0.0891754999756813,
        -0.03628820180892944
      ]
    },
    {
      "bufferView": 0,
      "byteOffset": 1509204,
      "count": 128393,
      "componentType": 5126,
      "type": "VEC3",
      "min": [
        -0.09517550468444824,
        -0.09183821082115173,
        -0.06168190389871597
      ],
      "max": [
        0.09366810321807861,
        0.08916160464286804,
        -0.03623110055923462
      ]
    },
    {
      "bufferView": 0,
      "byteOffset": 3049920,
      "count": 106412,
      "componentType": 5126,
      "type": "VEC3",
      "min": [
        -0.09516030550003052,
        -0.09182479977607727,
        -0.06162860244512558
      ],
      "max": [
        0.09367460012435913,
        0.0891776978969574,
        -0.03625950217247009
      ]
    },
    {
      "bufferView": 0,
      "byteOffset": 4326864,
      "count": 77663,
      "componentType": 5126,
      "type": "VEC3",
      "min": [
        -0.09516690671443939,
        -0.0917804092168808,
        -0.06181470304727554
      ],
      "max": [
        0.0937076061964035,
        0.0891776978969574,
        -0.03628870099782944
      ]
    },
    {
      "bufferView": 0,
      "byteOffset": 5258820,
      "count": 60840,
      "componentType": 5126,
      "type": "VEC3",
      "min": [
        -0.09515800327062607,
        -0.09176810085773468,
        -0.06060940399765968
      ],
      "max": [
        0.09369450807571411,
        0.08912140130996704,
        -0.036269403994083405
      ]
    },
    {
      "bufferView": 0,
      "byteOffset": 5988900,
      "count": 51921,
      "componentType": 5126,
      "type": "VEC3",
      "min": [
        -0.09507280588150024,
        -0.09182270616292953,
        -0.05910000205039978
      ],
      "max": [
        0.09363660216331482,
        0.0891754999756813,
        -0.03628870099782944
      ]
    },
    {
      "bufferView": 0,
      "byteOffset": 6611952,
      "count": 28836,
      "componentType": 5126,
      "type": "VEC3",
      "min": [
        -0.09514930099248886,
        -0.09178600460290909,
        -0.06181470304727554
      ],
      "max": [
        0.09357790648937225,
        0.08917910605669022,
        -0.04544040188193321
      ]
    },
    {
      "bufferView": 0,
      "byteOffset": 6957984,
      "count": 301,
      "componentType": 5126,
      "type": "VEC3",
      "min": [
        0.0408063642680645,
        0.04953722655773163,
        -0.05614288151264191
      ],
      "max": [
        0.09356951713562012,
        0.08914007991552353,
        -0.04948100447654724
      ]
    },
    {
      "bufferView": 1,
      "byteOffset": 0,
      "count": 125767,
      "componentType": 5126,
      "type": "VEC2"
    },
    {
      "bufferView": 1,
      "byteOffset": 1006136,
      "count": 128393,
      "componentType": 5126,
      "type": "VEC2"
    },
    {
      "bufferView": 1,
      "byteOffset": 2033280,
      "count": 106412,
      "componentType": 5126,
      "type": "VEC2"
    },
    {
      "bufferView": 1,
      "byteOffset": 2884576,
      "count": 77663,
      "componentType": 5126,
      "type": "VEC2"
    },
    {
      "bufferView": 1,
      "byteOffset": 3505880,
      "count": 60840,
      "componentType": 5126,
      "type": "VEC2"
    },
    {
      "bufferView": 1,
      "byteOffset": 3992600,
      "count": 51921,
      "componentType": 5126,
      "type": "VEC2"
    },
    {
      "bufferView": 1,
      "byteOffset": 4407968,
      "count": 28836,
      "componentType": 5126,
      "type": "VEC2"
    },
    {
      "bufferView": 2,
      "byteOffset": 0,
      "count": 301,
      "componentType": 5121,
      "type": "VEC4",
      "normalized": true
    },
    {
      "bufferView": 3,
      "byteOffset": 0,
      "count": 361935,
      "componentType": 5125,
      "type": "SCALAR"
    },
    {
      "bufferView": 3,
      "byteOffset": 1447740,
      "count": 523590,
      "componentType": 5125,
      "type": "SCALAR"
    },
    {
      "bufferView": 3,
      "byteOffset": 3542100,
      "count": 472434,
      "componentType": 5125,
      "type": "SCALAR"
    },
    {
      "bufferView": 3,
      "byteOffset": 5431836,
      "count": 360330,
      "componentType": 5125,
      "type": "SCALAR"
    },
    {
      "bufferView": 3,
      "byteOffset": 6873156,
      "count": 291624,
      "componentType": 5125,
      "type": "SCALAR"
    },
    {
      "bufferView": 3,
      "byteOffset": 8039652,
      "count": 254157,
      "componentType": 5125,
      "type": "SCALAR"
    },
    {
      "bufferView": 3,
      "byteOffset": 9056280,
      "count": 144504,
      "componentType": 5125,
      "type": "SCALAR"
    },
    {
      "bufferView": 3,
      "byteOffset": 9634296,
      "count": 888,
      "componentType": 5125,
      "type": "SCALAR"
    }
  ],
  "bufferViews": [
    {
      "buffer": 0,
      "byteOffset": 0,
      "byteLength": 6961596,
      "byteStride": 12,
      "target": 34962
    },
    {
      "buffer": 0,
      "byteOffset": 6961596,
      "byteLength": 4638656,
      "byteStride": 8,
      "target": 34962
    },
    {
      "buffer": 0,
      "byteOffset": 11600252,
      "byteLength": 1204,
      "byteStride": 4,
      "target": 34962
    },
    {
      "buffer": 0,
      "byteOffset": 11601456,
      "byteLength": 9637848,
      "target": 34963
    }
  ],
  "buffers": [
    {
      "byteLength": 21239304,
      "uri": "D Blok .bin"
    }
  ]
}
