{"asset":{"generator":"3D Builder","version":"2.0"},"scene":0,"scenes":[{"nodes":[0]}],"nodes":[{"mesh":0,"matrix":[0.99999994039535522,0,0,0,0,-1.1920928244535389E-7,-0.99999982118606567,0,0,0.99999982118606567,-1.1920928244535389E-7,0,0,0.061814691871404648,-7.3688863899690205E-9,1]}],"meshes":[{"primitives":[{"attributes":{"POSITION":0,"TEXCOORD_0":8},"mode":4,"indices":16,"material":0},{"attributes":{"POSITION":1,"TEXCOORD_0":9},"mode":4,"indices":17,"material":1},{"attributes":{"POSITION":2,"TEXCOORD_0":10},"mode":4,"indices":18,"material":2},{"attributes":{"POSITION":3,"TEXCOORD_0":11},"mode":4,"indices":19,"material":3},{"attributes":{"POSITION":4,"TEXCOORD_0":12},"mode":4,"indices":20,"material":4},{"attributes":{"POSITION":5,"TEXCOORD_0":13},"mode":4,"indices":21,"material":5},{"attributes":{"POSITION":6,"TEXCOORD_0":14},"mode":4,"indices":22,"material":6},{"attributes":{"POSITION":7,"COLOR_0":15},"mode":4,"indices":23}]}],"materials":[{"pbrMetallicRoughness":{"baseColorFactor":[1,1,1,1],"metallicFactor":0,"roughnessFactor":1,"baseColorTexture":{"index":0,"texCoord":0}},"alphaMode":"OPAQUE"},{"pbrMetallicRoughness":{"baseColorFactor":[1,1,1,1],"metallicFactor":0,"roughnessFactor":1,"baseColorTexture":{"index":1,"texCoord":0}},"alphaMode":"OPAQUE"},{"pbrMetallicRoughness":{"baseColorFactor":[1,1,1,1],"metallicFactor":0,"roughnessFactor":1,"baseColorTexture":{"index":2,"texCoord":0}},"alphaMode":"OPAQUE"},{"pbrMetallicRoughness":{"baseColorFactor":[1,1,1,1],"metallicFactor":0,"roughnessFactor":1,"baseColorTexture":{"index":3,"texCoord":0}},"alphaMode":"OPAQUE"},{"pbrMetallicRoughness":{"baseColorFactor":[1,1,1,1],"metallicFactor":0,"roughnessFactor":1,"baseColorTexture":{"index":4,"texCoord":0}},"alphaMode":"OPAQUE"},{"pbrMetallicRoughness":{"baseColorFactor":[1,1,1,1],"metallicFactor":0,"roughnessFactor":1,"baseColorTexture":{"index":5,"texCoord":0}},"alphaMode":"OPAQUE"},{"pbrMetallicRoughness":{"baseColorFactor":[1,1,1,1],"metallicFactor":0,"roughnessFactor":1,"baseColorTexture":{"index":6,"texCoord":0}},"alphaMode":"OPAQUE"}],"textures":[{"source":0,"sampler":0},{"source":1,"sampler":0},{"source":2,"sampler":0},{"source":3,"sampler":0},{"source":4,"sampler":0},{"source":5,"sampler":0},{"source":6,"sampler":0}],"images":[{"uri":"scene_mesh_textured_material_00_map_Kd.jpg.jpeg"},{"uri":"scene_mesh_textured_material_01_map_Kd.jpg.jpeg"},{"uri":"scene_mesh_textured_material_02_map_Kd.jpg.jpeg"},{"uri":"scene_mesh_textured_material_03_map_Kd.jpg.jpeg"},{"uri":"scene_mesh_textured_material_04_map_Kd.jpg.jpeg"},{"uri":"scene_mesh_textured_material_05_map_Kd.jpg.jpeg"},{"uri":"scene_mesh_textured_material_06_map_Kd.jpg.jpeg"}],"samplers":[{"magFilter":9729,"wrapS":10497,"wrapT":10497}],"accessors":[{"bufferView":0,"byteOffset":0,"count":125767,"componentType":5126,"type":"VEC3","min":[-0.095175504684448242,-0.091775201261043549,-0.061716001480817795],"max":[0.093653604388237,0.0891754999756813,-0.036288201808929443]},{"bufferView":0,"byteOffset":1509204,"count":128393,"componentType":5126,"type":"VEC3","min":[-0.095175504684448242,-0.091838210821151733,-0.061681903898715973],"max":[0.093668103218078613,0.089161604642868042,-0.036231100559234619]},{"bufferView":0,"byteOffset":3049920,"count":106412,"componentType":5126,"type":"VEC3","min":[-0.095160305500030518,-0.091824799776077271,-0.06162860244512558],"max":[0.093674600124359131,0.0891776978969574,-0.036259502172470093]},{"bufferView":0,"byteOffset":4326864,"count":77663,"componentType":5126,"type":"VEC3","min":[-0.095166906714439392,-0.0917804092168808,-0.061814703047275543],"max":[0.0937076061964035,0.0891776978969574,-0.036288700997829437]},{"bufferView":0,"byteOffset":5258820,"count":60840,"componentType":5126,"type":"VEC3","min":[-0.095158003270626068,-0.09176810085773468,-0.060609403997659683],"max":[0.093694508075714111,0.089121401309967041,-0.036269403994083405]},{"bufferView":0,"byteOffset":5988900,"count":51921,"componentType":5126,"type":"VEC3","min":[-0.095072805881500244,-0.091822706162929535,-0.05910000205039978],"max":[0.093636602163314819,0.0891754999756813,-0.036288700997829437]},{"bufferView":0,"byteOffset":6611952,"count":28836,"componentType":5126,"type":"VEC3","min":[-0.095149300992488861,-0.091786004602909088,-0.061814703047275543],"max":[0.093577906489372253,0.089179106056690216,-0.045440401881933212]},{"bufferView":0,"byteOffset":6957984,"count":301,"componentType":5126,"type":"VEC3","min":[0.0408063642680645,0.049537226557731628,-0.056142881512641907],"max":[0.093569517135620117,0.089140079915523529,-0.049481004476547241]},{"bufferView":1,"byteOffset":0,"count":125767,"componentType":5126,"type":"VEC2"},{"bufferView":1,"byteOffset":1006136,"count":128393,"componentType":5126,"type":"VEC2"},{"bufferView":1,"byteOffset":2033280,"count":106412,"componentType":5126,"type":"VEC2"},{"bufferView":1,"byteOffset":2884576,"count":77663,"componentType":5126,"type":"VEC2"},{"bufferView":1,"byteOffset":3505880,"count":60840,"componentType":5126,"type":"VEC2"},{"bufferView":1,"byteOffset":3992600,"count":51921,"componentType":5126,"type":"VEC2"},{"bufferView":1,"byteOffset":4407968,"count":28836,"componentType":5126,"type":"VEC2"},{"bufferView":2,"byteOffset":0,"count":301,"componentType":5121,"type":"VEC4","normalized":true},{"bufferView":3,"byteOffset":0,"count":361935,"componentType":5125,"type":"SCALAR"},{"bufferView":3,"byteOffset":1447740,"count":523590,"componentType":5125,"type":"SCALAR"},{"bufferView":3,"byteOffset":3542100,"count":472434,"componentType":5125,"type":"SCALAR"},{"bufferView":3,"byteOffset":5431836,"count":360330,"componentType":5125,"type":"SCALAR"},{"bufferView":3,"byteOffset":6873156,"count":291624,"componentType":5125,"type":"SCALAR"},{"bufferView":3,"byteOffset":8039652,"count":254157,"componentType":5125,"type":"SCALAR"},{"bufferView":3,"byteOffset":9056280,"count":144504,"componentType":5125,"type":"SCALAR"},{"bufferView":3,"byteOffset":9634296,"count":888,"componentType":5125,"type":"SCALAR"}],"bufferViews":[{"buffer":0,"byteOffset":0,"byteLength":6961596,"byteStride":12,"target":34962},{"buffer":0,"byteOffset":6961596,"byteLength":4638656,"byteStride":8,"target":34962},{"buffer":0,"byteOffset":11600252,"byteLength":1204,"byteStride":4,"target":34962},{"buffer":0,"byteOffset":11601456,"byteLength":9637848,"target":34963}],"buffers":[{"byteLength":21239304,"uri":"D Blok .bin"}]}