{"asset":{"generator":"3D Builder","version":"2.0"},"scene":0,"scenes":[{"nodes":[0]}],"nodes":[{"mesh":0,"matrix":[0.99999994039535522,0,0,0,0,-1.1920928244535389E-7,-0.99999982118606567,0,0,0.99999982118606567,-1.1920928244535389E-7,0,-0.0029600784182548523,0.076958879828453064,-0.034940633922815323,1]}],"meshes":[{"primitives":[{"attributes":{"POSITION":0,"TEXCOORD_0":12},"mode":4,"indices":24,"material":0},{"attributes":{"POSITION":1,"TEXCOORD_0":13},"mode":4,"indices":25,"material":1},{"attributes":{"POSITION":2,"TEXCOORD_0":14},"mode":4,"indices":26,"material":2},{"attributes":{"POSITION":3,"TEXCOORD_0":15},"mode":4,"indices":27,"material":3},{"attributes":{"POSITION":4,"TEXCOORD_0":16},"mode":4,"indices":28,"material":4},{"attributes":{"POSITION":5,"TEXCOORD_0":17},"mode":4,"indices":29,"material":5},{"attributes":{"POSITION":6,"TEXCOORD_0":18},"mode":4,"indices":30,"material":6},{"attributes":{"POSITION":7,"TEXCOORD_0":19},"mode":4,"indices":31,"material":7},{"attributes":{"POSITION":8,"TEXCOORD_0":20},"mode":4,"indices":32,"material":8},{"attributes":{"POSITION":9,"TEXCOORD_0":21},"mode":4,"indices":33,"material":9},{"attributes":{"POSITION":10,"TEXCOORD_0":22},"mode":4,"indices":34,"material":10},{"attributes":{"POSITION":11,"COLOR_0":23},"mode":4,"indices":35}]}],"materials":[{"pbrMetallicRoughness":{"baseColorFactor":[1,1,1,1],"metallicFactor":0,"roughnessFactor":1,"baseColorTexture":{"index":0,"texCoord":0}},"alphaMode":"OPAQUE"},{"pbrMetallicRoughness":{"baseColorFactor":[1,1,1,1],"metallicFactor":0,"roughnessFactor":1,"baseColorTexture":{"index":1,"texCoord":0}},"alphaMode":"OPAQUE"},{"pbrMetallicRoughness":{"baseColorFactor":[1,1,1,1],"metallicFactor":0,"roughnessFactor":1,"baseColorTexture":{"index":2,"texCoord":0}},"alphaMode":"OPAQUE"},{"pbrMetallicRoughness":{"baseColorFactor":[1,1,1,1],"metallicFactor":0,"roughnessFactor":1,"baseColorTexture":{"index":3,"texCoord":0}},"alphaMode":"OPAQUE"},{"pbrMetallicRoughness":{"baseColorFactor":[1,1,1,1],"metallicFactor":0,"roughnessFactor":1,"baseColorTexture":{"index":4,"texCoord":0}},"alphaMode":"OPAQUE"},{"pbrMetallicRoughness":{"baseColorFactor":[1,1,1,1],"metallicFactor":0,"roughnessFactor":1,"baseColorTexture":{"index":5,"texCoord":0}},"alphaMode":"OPAQUE"},{"pbrMetallicRoughness":{"baseColorFactor":[1,1,1,1],"metallicFactor":0,"roughnessFactor":1,"baseColorTexture":{"index":6,"texCoord":0}},"alphaMode":"OPAQUE"},{"pbrMetallicRoughness":{"baseColorFactor":[1,1,1,1],"metallicFactor":0,"roughnessFactor":1,"baseColorTexture":{"index":7,"texCoord":0}},"alphaMode":"OPAQUE"},{"pbrMetallicRoughness":{"baseColorFactor":[1,1,1,1],"metallicFactor":0,"roughnessFactor":1,"baseColorTexture":{"index":8,"texCoord":0}},"alphaMode":"OPAQUE"},{"pbrMetallicRoughness":{"baseColorFactor":[1,1,1,1],"metallicFactor":0,"roughnessFactor":1,"baseColorTexture":{"index":9,"texCoord":0}},"alphaMode":"OPAQUE"},{"pbrMetallicRoughness":{"baseColorFactor":[1,1,1,1],"metallicFactor":0,"roughnessFactor":1,"baseColorTexture":{"index":10,"texCoord":0}},"alphaMode":"OPAQUE"}],"textures":[{"source":0,"sampler":0},{"source":1,"sampler":0},{"source":2,"sampler":0},{"source":3,"sampler":0},{"source":4,"sampler":0},{"source":5,"sampler":0},{"source":6,"sampler":0},{"source":7,"sampler":0},{"source":8,"sampler":0},{"source":9,"sampler":0},{"source":10,"sampler":0}],"images":[{"uri":"scene_mesh_textured_material_00_map_Kd.jpg.jpeg"},{"uri":"scene_mesh_textured_material_01_map_Kd.jpg.jpeg"},{"uri":"scene_mesh_textured_material_02_map_Kd.jpg.jpeg"},{"uri":"scene_mesh_textured_material_03_map_Kd.jpg.jpeg"},{"uri":"scene_mesh_textured_material_04_map_Kd.jpg.jpeg"},{"uri":"scene_mesh_textured_material_05_map_Kd.jpg.jpeg"},{"uri":"scene_mesh_textured_material_06_map_Kd.jpg.jpeg"},{"uri":"scene_mesh_textured_material_07_map_Kd.jpg.jpeg"},{"uri":"scene_mesh_textured_material_08_map_Kd.jpg.jpeg"},{"uri":"scene_mesh_textured_material_09_map_Kd.jpg.jpeg"},{"uri":"scene_mesh_textured_material_10_map_Kd.jpg.jpeg"}],"samplers":[{"magFilter":9729,"wrapS":10497,"wrapT":10497}],"accessors":[{"bufferView":0,"byteOffset":0,"count":93879,"componentType":5126,"type":"VEC3","min":[-0.18026900291442871,-0.14471499621868134,-0.075699701905250549],"max":[0.19027100503444672,0.13852100074291229,-0.038776200264692307]},{"bufferView":0,"byteOffset":1126548,"count":96821,"componentType":5126,"type":"VEC3","min":[-0.18037000298500061,-0.14475400745868683,-0.075115196406841278],"max":[0.19001901149749756,0.12591686844825745,-0.038849301636219025]},{"bufferView":0,"byteOffset":2288400,"count":80700,"componentType":5126,"type":"VEC3","min":[-0.18027500808238983,-0.1445000022649765,-0.075158603489398956],"max":[0.18747700750827789,0.13185401260852814,-0.039309203624725342]},{"bufferView":0,"byteOffset":3256800,"count":66696,"componentType":5126,"type":"VEC3","min":[-0.18031501770019531,-0.14453200995922089,-0.073380604386329651],"max":[0.19028900563716888,0.11412900686264038,-0.039262503385543823]},{"bufferView":0,"byteOffset":4057152,"count":58345,"componentType":5126,"type":"VEC3","min":[-0.18037000298500061,-0.14457100629806519,-0.0735182836651802],"max":[0.18792101740837097,0.12605893611907959,-0.039269901812076569]},{"bufferView":0,"byteOffset":4757292,"count":48388,"componentType":5126,"type":"VEC3","min":[-0.18009001016616821,-0.13082800805568695,-0.073519900441169739],"max":[0.16966600716114044,0.11959719657897949,-0.039230599999427795]},{"bufferView":0,"byteOffset":5337948,"count":41608,"componentType":5126,"type":"VEC3","min":[-0.14815801382064819,-0.14454500377178192,-0.073811203241348267],"max":[0.16631500422954559,0.12097200751304626,-0.038776200264692307]},{"bufferView":0,"byteOffset":5837244,"count":32066,"componentType":5126,"type":"VEC3","min":[-0.14255800843238831,-0.12111100554466248,-0.074550502002239227],"max":[0.18020600080490112,0.12841446697711945,-0.040626000612974167]},{"bufferView":0,"byteOffset":6222036,"count":45484,"componentType":5126,"type":"VEC3","min":[-0.18036501109600067,-0.14471499621868134,-0.0734231099486351],"max":[0.19031600654125214,0.11047837883234024,-0.044717803597450256]},{"bufferView":0,"byteOffset":6767844,"count":50432,"componentType":5126,"type":"VEC3","min":[-0.18027500808238983,-0.14475400745868683,-0.076958902180194855],"max":[0.15351501107215881,0.13875600695610046,-0.048524800688028336]},{"bufferView":0,"byteOffset":7373028,"count":49533,"componentType":5126,"type":"VEC3","min":[-0.18019801378250122,-0.14433901011943817,-0.0666901022195816],"max":[0.19023600220680237,-0.016407102346420288,-0.052860300987958908]},{"bufferView":0,"byteOffset":7967424,"count":3061,"componentType":5126,"type":"VEC3","min":[-0.15936170518398285,0.0047715590335428715,-0.076022744178771973],"max":[0.19019445776939392,0.13873852789402008,-0.057713758200407028]},{"bufferView":1,"byteOffset":0,"count":93879,"componentType":5126,"type":"VEC2"},{"bufferView":1,"byteOffset":751032,"count":96821,"componentType":5126,"type":"VEC2"},{"bufferView":1,"byteOffset":1525600,"count":80700,"componentType":5126,"type":"VEC2"},{"bufferView":1,"byteOffset":2171200,"count":66696,"componentType":5126,"type":"VEC2"},{"bufferView":1,"byteOffset":2704768,"count":58345,"componentType":5126,"type":"VEC2"},{"bufferView":1,"byteOffset":3171528,"count":48388,"componentType":5126,"type":"VEC2"},{"bufferView":1,"byteOffset":3558632,"count":41608,"componentType":5126,"type":"VEC2"},{"bufferView":1,"byteOffset":3891496,"count":32066,"componentType":5126,"type":"VEC2"},{"bufferView":1,"byteOffset":4148024,"count":45484,"componentType":5126,"type":"VEC2"},{"bufferView":1,"byteOffset":4511896,"count":50432,"componentType":5126,"type":"VEC2"},{"bufferView":1,"byteOffset":4915352,"count":49533,"componentType":5126,"type":"VEC2"},{"bufferView":2,"byteOffset":0,"count":3061,"componentType":5121,"type":"VEC4","normalized":true},{"bufferView":3,"byteOffset":0,"count":243507,"componentType":5125,"type":"SCALAR"},{"bufferView":3,"byteOffset":974028,"count":382032,"componentType":5125,"type":"SCALAR"},{"bufferView":3,"byteOffset":2502156,"count":348531,"componentType":5125,"type":"SCALAR"},{"bufferView":3,"byteOffset":3896280,"count":302589,"componentType":5125,"type":"SCALAR"},{"bufferView":3,"byteOffset":5106636,"count":277878,"componentType":5125,"type":"SCALAR"},{"bufferView":3,"byteOffset":6218148,"count":233019,"componentType":5125,"type":"SCALAR"},{"bufferView":3,"byteOffset":7150224,"count":205011,"componentType":5125,"type":"SCALAR"},{"bufferView":3,"byteOffset":7970268,"count":158526,"componentType":5125,"type":"SCALAR"},{"bufferView":3,"byteOffset":8604372,"count":235608,"componentType":5125,"type":"SCALAR"},{"bufferView":3,"byteOffset":9546804,"count":277557,"componentType":5125,"type":"SCALAR"},{"bufferView":3,"byteOffset":10657032,"count":282648,"componentType":5125,"type":"SCALAR"},{"bufferView":3,"byteOffset":11787624,"count":9051,"componentType":5125,"type":"SCALAR"}],"bufferViews":[{"buffer":0,"byteOffset":0,"byteLength":8004156,"byteStride":12,"target":34962},{"buffer":0,"byteOffset":8004156,"byteLength":5311616,"byteStride":8,"target":34962},{"buffer":0,"byteOffset":13315772,"byteLength":12244,"byteStride":4,"target":34962},{"buffer":0,"byteOffset":13328016,"byteLength":11823828,"target":34963}],"buffers":[{"byteLength":25151844,"uri":"E Blok.bin"}]}