{"asset":{"generator":"3D Builder","version":"2.0"},"scene":0,"scenes":[{"nodes":[0]}],"nodes":[{"mesh":0,"matrix":[0.99999994039535522,0,0,0,0,-1.1920928244535389E-7,-0.99999982118606567,0,0,0.99999982118606567,-1.1920928244535389E-7,0,0,0.0665602907538414,-7.9346058612372872E-9,1]}],"meshes":[{"primitives":[{"attributes":{"POSITION":0,"TEXCOORD_0":33},"mode":4,"indices":66,"material":0},{"attributes":{"POSITION":1,"TEXCOORD_0":34},"mode":4,"indices":67,"material":1},{"attributes":{"POSITION":2,"TEXCOORD_0":35},"mode":4,"indices":68,"material":2},{"attributes":{"POSITION":3,"TEXCOORD_0":36},"mode":4,"indices":69,"material":3},{"attributes":{"POSITION":4,"TEXCOORD_0":37},"mode":4,"indices":70,"material":4},{"attributes":{"POSITION":5,"TEXCOORD_0":38},"mode":4,"indices":71,"material":5},{"attributes":{"POSITION":6,"TEXCOORD_0":39},"mode":4,"indices":72,"material":6},{"attributes":{"POSITION":7,"TEXCOORD_0":40},"mode":4,"indices":73,"material":7},{"attributes":{"POSITION":8,"TEXCOORD_0":41},"mode":4,"indices":74,"material":8},{"attributes":{"POSITION":9,"TEXCOORD_0":42},"mode":4,"indices":75,"material":9},{"attributes":{"POSITION":10,"TEXCOORD_0":43},"mode":4,"indices":76,"material":10},{"attributes":{"POSITION":11,"TEXCOORD_0":44},"mode":4,"indices":77,"material":11},{"attributes":{"POSITION":12,"TEXCOORD_0":45},"mode":4,"indices":78,"material":12},{"attributes":{"POSITION":13,"TEXCOORD_0":46},"mode":4,"indices":79,"material":13},{"attributes":{"POSITION":14,"TEXCOORD_0":47},"mode":4,"indices":80,"material":14},{"attributes":{"POSITION":15,"TEXCOORD_0":48},"mode":4,"indices":81,"material":15},{"attributes":{"POSITION":16,"TEXCOORD_0":49},"mode":4,"indices":82,"material":16},{"attributes":{"POSITION":17,"TEXCOORD_0":50},"mode":4,"indices":83,"material":17},{"attributes":{"POSITION":18,"TEXCOORD_0":51},"mode":4,"indices":84,"material":18},{"attributes":{"POSITION":19,"TEXCOORD_0":52},"mode":4,"indices":85,"material":19},{"attributes":{"POSITION":20,"TEXCOORD_0":53},"mode":4,"indices":86,"material":20},{"attributes":{"POSITION":21,"TEXCOORD_0":54},"mode":4,"indices":87,"material":21},{"attributes":{"POSITION":22,"TEXCOORD_0":55},"mode":4,"indices":88,"material":22},{"attributes":{"POSITION":23,"TEXCOORD_0":56},"mode":4,"indices":89,"material":23},{"attributes":{"POSITION":24,"TEXCOORD_0":57},"mode":4,"indices":90,"material":24},{"attributes":{"POSITION":25,"TEXCOORD_0":58},"mode":4,"indices":91,"material":25},{"attributes":{"POSITION":26,"TEXCOORD_0":59},"mode":4,"indices":92,"material":26},{"attributes":{"POSITION":27,"TEXCOORD_0":60},"mode":4,"indices":93,"material":27},{"attributes":{"POSITION":28,"TEXCOORD_0":61},"mode":4,"indices":94,"material":28},{"attributes":{"POSITION":29,"COLOR_0":62},"mode":4,"indices":95},{"attributes":{"POSITION":30,"COLOR_0":63},"mode":4,"indices":96},{"attributes":{"POSITION":31,"COLOR_0":64},"mode":4,"indices":97},{"attributes":{"POSITION":32,"COLOR_0":65},"mode":4,"indices":98}]}],"materials":[{"pbrMetallicRoughness":{"baseColorFactor":[1,1,1,1],"metallicFactor":0,"roughnessFactor":1,"baseColorTexture":{"index":0,"texCoord":0}},"alphaMode":"OPAQUE"},{"pbrMetallicRoughness":{"baseColorFactor":[1,1,1,1],"metallicFactor":0,"roughnessFactor":1,"baseColorTexture":{"index":1,"texCoord":0}},"alphaMode":"OPAQUE"},{"pbrMetallicRoughness":{"baseColorFactor":[1,1,1,1],"metallicFactor":0,"roughnessFactor":1,"baseColorTexture":{"index":2,"texCoord":0}},"alphaMode":"OPAQUE"},{"pbrMetallicRoughness":{"baseColorFactor":[1,1,1,1],"metallicFactor":0,"roughnessFactor":1,"baseColorTexture":{"index":3,"texCoord":0}},"alphaMode":"OPAQUE"},{"pbrMetallicRoughness":{"baseColorFactor":[1,1,1,1],"metallicFactor":0,"roughnessFactor":1,"baseColorTexture":{"index":4,"texCoord":0}},"alphaMode":"OPAQUE"},{"pbrMetallicRoughness":{"baseColorFactor":[1,1,1,1],"metallicFactor":0,"roughnessFactor":1,"baseColorTexture":{"index":5,"texCoord":0}},"alphaMode":"OPAQUE"},{"pbrMetallicRoughness":{"baseColorFactor":[1,1,1,1],"metallicFactor":0,"roughnessFactor":1,"baseColorTexture":{"index":6,"texCoord":0}},"alphaMode":"OPAQUE"},{"pbrMetallicRoughness":{"baseColorFactor":[1,1,1,1],"metallicFactor":0,"roughnessFactor":1,"baseColorTexture":{"index":7,"texCoord":0}},"alphaMode":"OPAQUE"},{"pbrMetallicRoughness":{"baseColorFactor":[1,1,1,1],"metallicFactor":0,"roughnessFactor":1,"baseColorTexture":{"index":8,"texCoord":0}},"alphaMode":"OPAQUE"},{"pbrMetallicRoughness":{"baseColorFactor":[1,1,1,1],"metallicFactor":0,"roughnessFactor":1,"baseColorTexture":{"index":9,"texCoord":0}},"alphaMode":"OPAQUE"},{"pbrMetallicRoughness":{"baseColorFactor":[1,1,1,1],"metallicFactor":0,"roughnessFactor":1,"baseColorTexture":{"index":10,"texCoord":0}},"alphaMode":"OPAQUE"},{"pbrMetallicRoughness":{"baseColorFactor":[1,1,1,1],"metallicFactor":0,"roughnessFactor":1,"baseColorTexture":{"index":11,"texCoord":0}},"alphaMode":"OPAQUE"},{"pbrMetallicRoughness":{"baseColorFactor":[1,1,1,1],"metallicFactor":0,"roughnessFactor":1,"baseColorTexture":{"index":12,"texCoord":0}},"alphaMode":"OPAQUE"},{"pbrMetallicRoughness":{"baseColorFactor":[1,1,1,1],"metallicFactor":0,"roughnessFactor":1,"baseColorTexture":{"index":13,"texCoord":0}},"alphaMode":"OPAQUE"},{"pbrMetallicRoughness":{"baseColorFactor":[1,1,1,1],"metallicFactor":0,"roughnessFactor":1,"baseColorTexture":{"index":14,"texCoord":0}},"alphaMode":"OPAQUE"},{"pbrMetallicRoughness":{"baseColorFactor":[1,1,1,1],"metallicFactor":0,"roughnessFactor":1,"baseColorTexture":{"index":15,"texCoord":0}},"alphaMode":"OPAQUE"},{"pbrMetallicRoughness":{"baseColorFactor":[1,1,1,1],"metallicFactor":0,"roughnessFactor":1,"baseColorTexture":{"index":16,"texCoord":0}},"alphaMode":"OPAQUE"},{"pbrMetallicRoughness":{"baseColorFactor":[1,1,1,1],"metallicFactor":0,"roughnessFactor":1,"baseColorTexture":{"index":17,"texCoord":0}},"alphaMode":"OPAQUE"},{"pbrMetallicRoughness":{"baseColorFactor":[1,1,1,1],"metallicFactor":0,"roughnessFactor":1,"baseColorTexture":{"index":18,"texCoord":0}},"alphaMode":"OPAQUE"},{"pbrMetallicRoughness":{"baseColorFactor":[1,1,1,1],"metallicFactor":0,"roughnessFactor":1,"baseColorTexture":{"index":19,"texCoord":0}},"alphaMode":"OPAQUE"},{"pbrMetallicRoughness":{"baseColorFactor":[1,1,1,1],"metallicFactor":0,"roughnessFactor":1,"baseColorTexture":{"index":20,"texCoord":0}},"alphaMode":"OPAQUE"},{"pbrMetallicRoughness":{"baseColorFactor":[1,1,1,1],"metallicFactor":0,"roughnessFactor":1,"baseColorTexture":{"index":21,"texCoord":0}},"alphaMode":"OPAQUE"},{"pbrMetallicRoughness":{"baseColorFactor":[1,1,1,1],"metallicFactor":0,"roughnessFactor":1,"baseColorTexture":{"index":22,"texCoord":0}},"alphaMode":"OPAQUE"},{"pbrMetallicRoughness":{"baseColorFactor":[1,1,1,1],"metallicFactor":0,"roughnessFactor":1,"baseColorTexture":{"index":23,"texCoord":0}},"alphaMode":"OPAQUE"},{"pbrMetallicRoughness":{"baseColorFactor":[1,1,1,1],"metallicFactor":0,"roughnessFactor":1,"baseColorTexture":{"index":24,"texCoord":0}},"alphaMode":"OPAQUE"},{"pbrMetallicRoughness":{"baseColorFactor":[1,1,1,1],"metallicFactor":0,"roughnessFactor":1,"baseColorTexture":{"index":25,"texCoord":0}},"alphaMode":"OPAQUE"},{"pbrMetallicRoughness":{"baseColorFactor":[1,1,1,1],"metallicFactor":0,"roughnessFactor":1,"baseColorTexture":{"index":26,"texCoord":0}},"alphaMode":"OPAQUE"},{"pbrMetallicRoughness":{"baseColorFactor":[1,1,1,1],"metallicFactor":0,"roughnessFactor":1,"baseColorTexture":{"index":27,"texCoord":0}},"alphaMode":"OPAQUE"},{"pbrMetallicRoughness":{"baseColorFactor":[1,1,1,1],"metallicFactor":0,"roughnessFactor":1,"baseColorTexture":{"index":28,"texCoord":0}},"alphaMode":"OPAQUE"}],"textures":[{"source":0,"sampler":0},{"source":1,"sampler":0},{"source":2,"sampler":0},{"source":3,"sampler":0},{"source":4,"sampler":0},{"source":5,"sampler":0},{"source":6,"sampler":0},{"source":7,"sampler":0},{"source":8,"sampler":0},{"source":9,"sampler":0},{"source":10,"sampler":0},{"source":11,"sampler":0},{"source":12,"sampler":0},{"source":13,"sampler":0},{"source":14,"sampler":0},{"source":15,"sampler":0},{"source":16,"sampler":0},{"source":17,"sampler":0},{"source":18,"sampler":0},{"source":19,"sampler":0},{"source":20,"sampler":0},{"source":21,"sampler":0},{"source":22,"sampler":0},{"source":23,"sampler":0},{"source":24,"sampler":0},{"source":25,"sampler":0},{"source":26,"sampler":0},{"source":27,"sampler":0},{"source":28,"sampler":0}],"images":[{"uri":"scene_mesh_textured_material_00_map_Kd.jpg.jpeg"},{"uri":"scene_mesh_textured_material_01_map_Kd.jpg.jpeg"},{"uri":"scene_mesh_textured_material_02_map_Kd.jpg.jpeg"},{"uri":"scene_mesh_textured_material_03_map_Kd.jpg.jpeg"},{"uri":"scene_mesh_textured_material_04_map_Kd.jpg.jpeg"},{"uri":"scene_mesh_textured_material_05_map_Kd.jpg.jpeg"},{"uri":"scene_mesh_textured_material_06_map_Kd.jpg.jpeg"},{"uri":"scene_mesh_textured_material_07_map_Kd.jpg.jpeg"},{"uri":"scene_mesh_textured_material_08_map_Kd.jpg.jpeg"},{"uri":"scene_mesh_textured_material_09_map_Kd.jpg.jpeg"},{"uri":"scene_mesh_textured_material_10_map_Kd.jpg.jpeg"},{"uri":"scene_mesh_textured_material_11_map_Kd.jpg.jpeg"},{"uri":"scene_mesh_textured_material_12_map_Kd.jpg.jpeg"},{"uri":"scene_mesh_textured_material_13_map_Kd.jpg.jpeg"},{"uri":"scene_mesh_textured_material_14_map_Kd.jpg.jpeg"},{"uri":"scene_mesh_textured_material_15_map_Kd.jpg.jpeg"},{"uri":"scene_mesh_textured_material_16_map_Kd.jpg.jpeg"},{"uri":"scene_mesh_textured_material_17_map_Kd.jpg.jpeg"},{"uri":"scene_mesh_textured_material_18_map_Kd.jpg.jpeg"},{"uri":"scene_mesh_textured_material_19_map_Kd.jpg.jpeg"},{"uri":"scene_mesh_textured_material_20_map_Kd.jpg.jpeg"},{"uri":"scene_mesh_textured_material_21_map_Kd.jpg.jpeg"},{"uri":"scene_mesh_textured_material_22_map_Kd.jpg.jpeg"},{"uri":"scene_mesh_textured_material_23_map_Kd.jpg.jpeg"},{"uri":"scene_mesh_textured_material_24_map_Kd.jpg.jpeg"},{"uri":"scene_mesh_textured_material_25_map_Kd.jpg.jpeg"},{"uri":"scene_mesh_textured_material_26_map_Kd.jpg.jpeg"},{"uri":"scene_mesh_textured_material_27_map_Kd.jpg.jpeg"},{"uri":"scene_mesh_textured_material_28_map_Kd.jpg.jpeg"}],"samplers":[{"magFilter":9729,"wrapS":10497,"wrapT":10497}],"accessors":[{"bufferView":0,"byteOffset":0,"count":99736,"componentType":5126,"type":"VEC3","min":[-0.32025501132011414,-0.20094075798988342,-0.06481190025806427],"max":[0.27404099702835083,0.18799801170825958,-0.030258301645517349]},{"bufferView":0,"byteOffset":1196832,"count":99177,"componentType":5126,"type":"VEC3","min":[-0.27973499894142151,-0.19517384469509125,-0.06460849940776825],"max":[0.27013599872589111,0.18601600825786591,-0.030855102464556694]},{"bufferView":0,"byteOffset":2386956,"count":101543,"componentType":5126,"type":"VEC3","min":[-0.28013902902603149,-0.192998006939888,-0.0644921064376831],"max":[0.24624094367027283,0.184213325381279,-0.03279460221529007]},{"bufferView":0,"byteOffset":3605472,"count":97162,"componentType":5126,"type":"VEC3","min":[-0.27007001638412476,-0.19505400955677032,-0.064056396484375],"max":[0.27445200085639954,0.1831660121679306,-0.031850501894950867]},{"bufferView":0,"byteOffset":4771416,"count":91578,"componentType":5126,"type":"VEC3","min":[-0.27100801467895508,-0.19512103497982025,-0.064442649483680725],"max":[0.25230750441551208,0.18393617868423462,-0.03010840155184269]},{"bufferView":0,"byteOffset":5870352,"count":86646,"componentType":5126,"type":"VEC3","min":[-0.27246099710464478,-0.19423101842403412,-0.064453743398189545],"max":[0.23693300783634186,0.18354801833629608,-0.03010840155184269]},{"bufferView":0,"byteOffset":6910104,"count":82140,"componentType":5126,"type":"VEC3","min":[-0.26322400569915771,-0.19834500551223755,-0.064444400370121],"max":[0.24676012992858887,0.17668500542640686,-0.031332500278949738]},{"bufferView":0,"byteOffset":7895784,"count":76690,"componentType":5126,"type":"VEC3","min":[-0.25234302878379822,-0.194783017039299,-0.064371101558208466],"max":[0.27444502711296082,0.18151400983333588,-0.030587602406740189]},{"bufferView":0,"byteOffset":8816064,"count":73942,"componentType":5126,"type":"VEC3","min":[-0.24596101045608521,-0.18423199653625488,-0.06393750011920929],"max":[0.22501900792121887,0.17983901500701904,-0.031937401741743088]},{"bufferView":0,"byteOffset":9703368,"count":73939,"componentType":5126,"type":"VEC3","min":[-0.26168400049209595,-0.19381400942802429,-0.064546003937721252],"max":[0.23517900705337524,0.18567900359630585,-0.032959301024675369]},{"bufferView":0,"byteOffset":10590636,"count":70361,"componentType":5126,"type":"VEC3","min":[-0.27913501858711243,-0.19097401201725006,-0.0641833022236824],"max":[0.22751101851463318,0.18122701346874237,-0.033064901828765869]},{"bufferView":0,"byteOffset":11434968,"count":61548,"componentType":5126,"type":"VEC3","min":[-0.2464819997549057,-0.18616500496864319,-0.063427604734897614],"max":[0.21621300280094147,0.17340300977230072,-0.032714001834392548]},{"bufferView":0,"byteOffset":12173544,"count":59384,"componentType":5126,"type":"VEC3","min":[-0.27899500727653503,-0.18567301332950592,-0.064235106110572815],"max":[0.2230830043554306,0.1760530024766922,-0.031569801270961761]},{"bufferView":0,"byteOffset":12886152,"count":57018,"componentType":5126,"type":"VEC3","min":[-0.27561700344085693,-0.18068821728229523,-0.0635019987821579],"max":[0.25244802236557007,0.17749200761318207,-0.031512301415205]},{"bufferView":0,"byteOffset":13570368,"count":54929,"componentType":5126,"type":"VEC3","min":[-0.23226000368595123,-0.1808336079120636,-0.062745898962020874],"max":[0.24105300009250641,0.16878901422023773,-0.031581901013851166]},{"bufferView":0,"byteOffset":14229516,"count":50019,"componentType":5126,"type":"VEC3","min":[-0.23458901047706604,-0.19984336197376251,-0.0644429475069046],"max":[0.20218200981616974,0.18194800615310669,-0.030520902946591377]},{"bufferView":0,"byteOffset":14829744,"count":47311,"componentType":5126,"type":"VEC3","min":[-0.26298302412033081,-0.17671689391136169,-0.064400710165500641],"max":[0.24553000926971436,0.18055987358093262,-0.033300399780273438]},{"bufferView":0,"byteOffset":15397476,"count":46968,"componentType":5126,"type":"VEC3","min":[-0.24084301292896271,-0.17120501399040222,-0.064122498035430908],"max":[0.22475400567054749,0.17943201959133148,-0.030823701992630959]},{"bufferView":0,"byteOffset":15961092,"count":38965,"componentType":5126,"type":"VEC3","min":[-0.26321399211883545,-0.18787901103496552,-0.063804797828197479],"max":[0.18588902056217194,0.16116401553153992,-0.033339202404022217]},{"bufferView":0,"byteOffset":16428672,"count":42605,"componentType":5126,"type":"VEC3","min":[-0.25791701674461365,-0.16831101477146149,-0.064134404063224792],"max":[0.23147201538085938,0.18352119624614716,-0.035179901868104935]},{"bufferView":0,"byteOffset":16939932,"count":33584,"componentType":5126,"type":"VEC3","min":[-0.2767530083656311,-0.17758502066135406,-0.064917303621768951],"max":[0.238738015294075,0.1870894581079483,-0.032359402626752853]},{"bufferView":0,"byteOffset":17342940,"count":36626,"componentType":5126,"type":"VEC3","min":[-0.2770330011844635,-0.18368899822235107,-0.06491599977016449],"max":[0.22424300014972687,0.18764200806617737,-0.032083701342344284]},{"bufferView":0,"byteOffset":17782452,"count":38940,"componentType":5126,"type":"VEC3","min":[-0.26336801052093506,-0.1893250048160553,-0.0628708004951477],"max":[0.25523501634597778,0.16007800400257111,-0.0322314016520977]},{"bufferView":0,"byteOffset":18249732,"count":32416,"componentType":5126,"type":"VEC3","min":[-0.18929500877857208,-0.19075201451778412,-0.0647844523191452],"max":[0.27445903420448303,0.19188585877418518,-0.033315703272819519]},{"bufferView":0,"byteOffset":18638724,"count":29733,"componentType":5126,"type":"VEC3","min":[-0.30014100670814514,-0.20459336042404175,-0.063856899738311768],"max":[0.27445301413536072,0.18285836279392242,-0.03651830181479454]},{"bufferView":0,"byteOffset":18995520,"count":20623,"componentType":5126,"type":"VEC3","min":[-0.32029101252555847,-0.12132079899311066,-0.06482311338186264],"max":[0.27096393704414368,0.19168590009212494,-0.049916304647922516]},{"bufferView":0,"byteOffset":19242996,"count":14179,"componentType":5126,"type":"VEC3","min":[-0.27886500954627991,-0.17669051885604858,-0.060178905725479126],"max":[0.23979800939559937,0.095260500907897949,-0.040002703666687012]},{"bufferView":0,"byteOffset":19413144,"count":19123,"componentType":5126,"type":"VEC3","min":[-0.27974674105644226,-0.19162701070308685,-0.061666317284107208],"max":[0.18211400508880615,0.065056607127189636,-0.0328093022108078]},{"bufferView":0,"byteOffset":19642620,"count":4619,"componentType":5126,"type":"VEC3","min":[-0.15918000042438507,-0.16626764833927155,-0.052297603338956833],"max":[-0.093837805092334747,-0.13911400735378265,-0.039771199226379395]},{"bufferView":0,"byteOffset":19698048,"count":3154,"componentType":5126,"type":"VEC3","min":[-0.32026579976081848,-0.20473372936248779,-0.058764677494764328],"max":[0.072938524186611176,-0.11550993472337723,-0.034346021711826324]},{"bufferView":0,"byteOffset":19735896,"count":1980,"componentType":5126,"type":"VEC3","min":[0.072932526469230652,-0.20473372936248779,-0.060967601835727692],"max":[0.27424722909927368,0.14971323311328888,-0.044514819979667664]},{"bufferView":0,"byteOffset":19759656,"count":1672,"componentType":5126,"type":"VEC3","min":[-0.025184940546751022,0.17435704171657562,-0.065629966557025909],"max":[0.27434021234512329,0.19188585877418518,-0.061326161026954651]},{"bufferView":0,"byteOffset":19779720,"count":2583,"componentType":5126,"type":"VEC3","min":[-0.32025563716888428,-0.083750508725643158,-0.065629966557025909],"max":[-0.025081893429160118,0.17441640794277191,-0.0504491850733757]},{"bufferView":1,"byteOffset":0,"count":99736,"componentType":5126,"type":"VEC2"},{"bufferView":1,"byteOffset":797888,"count":99177,"componentType":5126,"type":"VEC2"},{"bufferView":1,"byteOffset":1591304,"count":101543,"componentType":5126,"type":"VEC2"},{"bufferView":1,"byteOffset":2403648,"count":97162,"componentType":5126,"type":"VEC2"},{"bufferView":1,"byteOffset":3180944,"count":91578,"componentType":5126,"type":"VEC2"},{"bufferView":1,"byteOffset":3913568,"count":86646,"componentType":5126,"type":"VEC2"},{"bufferView":1,"byteOffset":4606736,"count":82140,"componentType":5126,"type":"VEC2"},{"bufferView":1,"byteOffset":5263856,"count":76690,"componentType":5126,"type":"VEC2"},{"bufferView":1,"byteOffset":5877376,"count":73942,"componentType":5126,"type":"VEC2"},{"bufferView":1,"byteOffset":6468912,"count":73939,"componentType":5126,"type":"VEC2"},{"bufferView":1,"byteOffset":7060424,"count":70361,"componentType":5126,"type":"VEC2"},{"bufferView":1,"byteOffset":7623312,"count":61548,"componentType":5126,"type":"VEC2"},{"bufferView":1,"byteOffset":8115696,"count":59384,"componentType":5126,"type":"VEC2"},{"bufferView":1,"byteOffset":8590768,"count":57018,"componentType":5126,"type":"VEC2"},{"bufferView":1,"byteOffset":9046912,"count":54929,"componentType":5126,"type":"VEC2"},{"bufferView":1,"byteOffset":9486344,"count":50019,"componentType":5126,"type":"VEC2"},{"bufferView":1,"byteOffset":9886496,"count":47311,"componentType":5126,"type":"VEC2"},{"bufferView":1,"byteOffset":10264984,"count":46968,"componentType":5126,"type":"VEC2"},{"bufferView":1,"byteOffset":10640728,"count":38965,"componentType":5126,"type":"VEC2"},{"bufferView":1,"byteOffset":10952448,"count":42605,"componentType":5126,"type":"VEC2"},{"bufferView":1,"byteOffset":11293288,"count":33584,"componentType":5126,"type":"VEC2"},{"bufferView":1,"byteOffset":11561960,"count":36626,"componentType":5126,"type":"VEC2"},{"bufferView":1,"byteOffset":11854968,"count":38940,"componentType":5126,"type":"VEC2"},{"bufferView":1,"byteOffset":12166488,"count":32416,"componentType":5126,"type":"VEC2"},{"bufferView":1,"byteOffset":12425816,"count":29733,"componentType":5126,"type":"VEC2"},{"bufferView":1,"byteOffset":12663680,"count":20623,"componentType":5126,"type":"VEC2"},{"bufferView":1,"byteOffset":12828664,"count":14179,"componentType":5126,"type":"VEC2"},{"bufferView":1,"byteOffset":12942096,"count":19123,"componentType":5126,"type":"VEC2"},{"bufferView":1,"byteOffset":13095080,"count":4619,"componentType":5126,"type":"VEC2"},{"bufferView":2,"byteOffset":0,"count":3154,"componentType":5121,"type":"VEC4","normalized":true},{"bufferView":2,"byteOffset":12616,"count":1980,"componentType":5121,"type":"VEC4","normalized":true},{"bufferView":2,"byteOffset":20536,"count":1672,"componentType":5121,"type":"VEC4","normalized":true},{"bufferView":2,"byteOffset":27224,"count":2583,"componentType":5121,"type":"VEC4","normalized":true},{"bufferView":3,"byteOffset":0,"count":208086,"componentType":5125,"type":"SCALAR"},{"bufferView":3,"byteOffset":832344,"count":332571,"componentType":5125,"type":"SCALAR"},{"bufferView":3,"byteOffset":2162628,"count":403062,"componentType":5125,"type":"SCALAR"},{"bufferView":3,"byteOffset":3774876,"count":411213,"componentType":5125,"type":"SCALAR"},{"bufferView":3,"byteOffset":5419728,"count":402789,"componentType":5125,"type":"SCALAR"},{"bufferView":3,"byteOffset":7030884,"count":392649,"componentType":5125,"type":"SCALAR"},{"bufferView":3,"byteOffset":8601480,"count":381231,"componentType":5125,"type":"SCALAR"},{"bufferView":3,"byteOffset":10126404,"count":360603,"componentType":5125,"type":"SCALAR"},{"bufferView":3,"byteOffset":11568816,"count":353394,"componentType":5125,"type":"SCALAR"},{"bufferView":3,"byteOffset":12982392,"count":357486,"componentType":5125,"type":"SCALAR"},{"bufferView":3,"byteOffset":14412336,"count":343041,"componentType":5125,"type":"SCALAR"},{"bufferView":3,"byteOffset":15784500,"count":302919,"componentType":5125,"type":"SCALAR"},{"bufferView":3,"byteOffset":16996176,"count":294378,"componentType":5125,"type":"SCALAR"},{"bufferView":3,"byteOffset":18173688,"count":283494,"componentType":5125,"type":"SCALAR"},{"bufferView":3,"byteOffset":19307664,"count":274569,"componentType":5125,"type":"SCALAR"},{"bufferView":3,"byteOffset":20405940,"count":253155,"componentType":5125,"type":"SCALAR"},{"bufferView":3,"byteOffset":21418560,"count":236838,"componentType":5125,"type":"SCALAR"},{"bufferView":3,"byteOffset":22365912,"count":239565,"componentType":5125,"type":"SCALAR"},{"bufferView":3,"byteOffset":23324172,"count":198648,"componentType":5125,"type":"SCALAR"},{"bufferView":3,"byteOffset":24118764,"count":216063,"componentType":5125,"type":"SCALAR"},{"bufferView":3,"byteOffset":24983016,"count":172224,"componentType":5125,"type":"SCALAR"},{"bufferView":3,"byteOffset":25671912,"count":187998,"componentType":5125,"type":"SCALAR"},{"bufferView":3,"byteOffset":26423904,"count":201729,"componentType":5125,"type":"SCALAR"},{"bufferView":3,"byteOffset":27230820,"count":167070,"componentType":5125,"type":"SCALAR"},{"bufferView":3,"byteOffset":27899100,"count":157854,"componentType":5125,"type":"SCALAR"},{"bufferView":3,"byteOffset":28530516,"count":115659,"componentType":5125,"type":"SCALAR"},{"bufferView":3,"byteOffset":28993152,"count":72609,"componentType":5125,"type":"SCALAR"},{"bufferView":3,"byteOffset":29283588,"count":102450,"componentType":5125,"type":"SCALAR"},{"bufferView":3,"byteOffset":29693388,"count":23838,"componentType":5125,"type":"SCALAR"},{"bufferView":3,"byteOffset":29788740,"count":9375,"componentType":5125,"type":"SCALAR"},{"bufferView":3,"byteOffset":29826240,"count":5883,"componentType":5125,"type":"SCALAR"},{"bufferView":3,"byteOffset":29849772,"count":4992,"componentType":5125,"type":"SCALAR"},{"bufferView":3,"byteOffset":29869740,"count":7677,"componentType":5125,"type":"SCALAR"}],"bufferViews":[{"buffer":0,"byteOffset":0,"byteLength":19810716,"byteStride":12,"target":34962},{"buffer":0,"byteOffset":19810716,"byteLength":13132032,"byteStride":8,"target":34962},{"buffer":0,"byteOffset":32942748,"byteLength":37556,"byteStride":4,"target":34962},{"buffer":0,"byteOffset":32980304,"byteLength":29900448,"target":34963}],"buffers":[{"byteLength":62880752,"uri":"A blok B blok Spor Tesisleri.bin"}]}