{"asset":{"generator":"3D Builder","version":"2.0"},"scene":0,"scenes":[{"nodes":[0]}],"nodes":[{"mesh":0,"matrix":[0.99999994039535522,0,0,0,0,-1.1920928244535389E-7,-0.99999982118606567,0,0,0.99999982118606567,-1.1920928244535389E-7,0,0,0.052421793341636658,-6.2491656294128006E-9,1]}],"meshes":[{"primitives":[{"attributes":{"POSITION":0,"TEXCOORD_0":18},"mode":4,"indices":36,"material":0},{"attributes":{"POSITION":1,"TEXCOORD_0":19},"mode":4,"indices":37,"material":1},{"attributes":{"POSITION":2,"TEXCOORD_0":20},"mode":4,"indices":38,"material":2},{"attributes":{"POSITION":3,"TEXCOORD_0":21},"mode":4,"indices":39,"material":3},{"attributes":{"POSITION":4,"TEXCOORD_0":22},"mode":4,"indices":40,"material":4},{"attributes":{"POSITION":5,"TEXCOORD_0":23},"mode":4,"indices":41,"material":5},{"attributes":{"POSITION":6,"TEXCOORD_0":24},"mode":4,"indices":42,"material":6},{"attributes":{"POSITION":7,"TEXCOORD_0":25},"mode":4,"indices":43,"material":7},{"attributes":{"POSITION":8,"TEXCOORD_0":26},"mode":4,"indices":44,"material":8},{"attributes":{"POSITION":9,"TEXCOORD_0":27},"mode":4,"indices":45,"material":9},{"attributes":{"POSITION":10,"TEXCOORD_0":28},"mode":4,"indices":46,"material":10},{"attributes":{"POSITION":11,"TEXCOORD_0":29},"mode":4,"indices":47,"material":11},{"attributes":{"POSITION":12,"TEXCOORD_0":30},"mode":4,"indices":48,"material":12},{"attributes":{"POSITION":13,"TEXCOORD_0":31},"mode":4,"indices":49,"material":13},{"attributes":{"POSITION":14,"TEXCOORD_0":32},"mode":4,"indices":50,"material":14},{"attributes":{"POSITION":15,"TEXCOORD_0":33},"mode":4,"indices":51,"material":15},{"attributes":{"POSITION":16,"TEXCOORD_0":34},"mode":4,"indices":52,"material":16},{"attributes":{"POSITION":17,"TEXCOORD_0":35},"mode":4,"indices":53,"material":17}]}],"materials":[{"pbrMetallicRoughness":{"baseColorFactor":[1,1,1,1],"metallicFactor":0,"roughnessFactor":1,"baseColorTexture":{"index":0,"texCoord":0}},"alphaMode":"OPAQUE"},{"pbrMetallicRoughness":{"baseColorFactor":[1,1,1,1],"metallicFactor":0,"roughnessFactor":1,"baseColorTexture":{"index":1,"texCoord":0}},"alphaMode":"OPAQUE"},{"pbrMetallicRoughness":{"baseColorFactor":[1,1,1,1],"metallicFactor":0,"roughnessFactor":1,"baseColorTexture":{"index":2,"texCoord":0}},"alphaMode":"OPAQUE"},{"pbrMetallicRoughness":{"baseColorFactor":[1,1,1,1],"metallicFactor":0,"roughnessFactor":1,"baseColorTexture":{"index":3,"texCoord":0}},"alphaMode":"OPAQUE"},{"pbrMetallicRoughness":{"baseColorFactor":[1,1,1,1],"metallicFactor":0,"roughnessFactor":1,"baseColorTexture":{"index":4,"texCoord":0}},"alphaMode":"OPAQUE"},{"pbrMetallicRoughness":{"baseColorFactor":[1,1,1,1],"metallicFactor":0,"roughnessFactor":1,"baseColorTexture":{"index":5,"texCoord":0}},"alphaMode":"OPAQUE"},{"pbrMetallicRoughness":{"baseColorFactor":[1,1,1,1],"metallicFactor":0,"roughnessFactor":1,"baseColorTexture":{"index":6,"texCoord":0}},"alphaMode":"OPAQUE"},{"pbrMetallicRoughness":{"baseColorFactor":[1,1,1,1],"metallicFactor":0,"roughnessFactor":1,"baseColorTexture":{"index":7,"texCoord":0}},"alphaMode":"OPAQUE"},{"pbrMetallicRoughness":{"baseColorFactor":[1,1,1,1],"metallicFactor":0,"roughnessFactor":1,"baseColorTexture":{"index":8,"texCoord":0}},"alphaMode":"OPAQUE"},{"pbrMetallicRoughness":{"baseColorFactor":[1,1,1,1],"metallicFactor":0,"roughnessFactor":1,"baseColorTexture":{"index":9,"texCoord":0}},"alphaMode":"OPAQUE"},{"pbrMetallicRoughness":{"baseColorFactor":[1,1,1,1],"metallicFactor":0,"roughnessFactor":1,"baseColorTexture":{"index":10,"texCoord":0}},"alphaMode":"OPAQUE"},{"pbrMetallicRoughness":{"baseColorFactor":[1,1,1,1],"metallicFactor":0,"roughnessFactor":1,"baseColorTexture":{"index":11,"texCoord":0}},"alphaMode":"OPAQUE"},{"pbrMetallicRoughness":{"baseColorFactor":[1,1,1,1],"metallicFactor":0,"roughnessFactor":1,"baseColorTexture":{"index":12,"texCoord":0}},"alphaMode":"OPAQUE"},{"pbrMetallicRoughness":{"baseColorFactor":[1,1,1,1],"metallicFactor":0,"roughnessFactor":1,"baseColorTexture":{"index":13,"texCoord":0}},"alphaMode":"OPAQUE"},{"pbrMetallicRoughness":{"baseColorFactor":[1,1,1,1],"metallicFactor":0,"roughnessFactor":1,"baseColorTexture":{"index":14,"texCoord":0}},"alphaMode":"OPAQUE"},{"pbrMetallicRoughness":{"baseColorFactor":[1,1,1,1],"metallicFactor":0,"roughnessFactor":1,"baseColorTexture":{"index":15,"texCoord":0}},"alphaMode":"OPAQUE"},{"pbrMetallicRoughness":{"baseColorFactor":[1,1,1,1],"metallicFactor":0,"roughnessFactor":1,"baseColorTexture":{"index":16,"texCoord":0}},"alphaMode":"OPAQUE"},{"pbrMetallicRoughness":{"baseColorFactor":[1,1,1,1],"metallicFactor":0,"roughnessFactor":1,"baseColorTexture":{"index":17,"texCoord":0}},"alphaMode":"OPAQUE"}],"textures":[{"source":0,"sampler":0},{"source":1,"sampler":0},{"source":2,"sampler":0},{"source":3,"sampler":0},{"source":4,"sampler":0},{"source":5,"sampler":0},{"source":6,"sampler":0},{"source":7,"sampler":0},{"source":8,"sampler":0},{"source":9,"sampler":0},{"source":10,"sampler":0},{"source":11,"sampler":0},{"source":12,"sampler":0},{"source":13,"sampler":0},{"source":14,"sampler":0},{"source":15,"sampler":0},{"source":16,"sampler":0},{"source":17,"sampler":0}],"images":[{"uri":"scene_mesh_textured_material_00_map_Kd.jpg.jpeg"},{"uri":"scene_mesh_textured_material_01_map_Kd.jpg.jpeg"},{"uri":"scene_mesh_textured_material_02_map_Kd.jpg.jpeg"},{"uri":"scene_mesh_textured_material_03_map_Kd.jpg.jpeg"},{"uri":"scene_mesh_textured_material_04_map_Kd.jpg.jpeg"},{"uri":"scene_mesh_textured_material_05_map_Kd.jpg.jpeg"},{"uri":"scene_mesh_textured_material_06_map_Kd.jpg.jpeg"},{"uri":"scene_mesh_textured_material_07_map_Kd.jpg.jpeg"},{"uri":"scene_mesh_textured_material_08_map_Kd.jpg.jpeg"},{"uri":"scene_mesh_textured_material_09_map_Kd.jpg.jpeg"},{"uri":"scene_mesh_textured_material_10_map_Kd.jpg.jpeg"},{"uri":"scene_mesh_textured_material_11_map_Kd.jpg.jpeg"},{"uri":"scene_mesh_textured_material_12_map_Kd.jpg.jpeg"},{"uri":"scene_mesh_textured_material_13_map_Kd.jpg.jpeg"},{"uri":"scene_mesh_textured_material_14_map_Kd.jpg.jpeg"},{"uri":"scene_mesh_textured_material_15_map_Kd.jpg.jpeg"},{"uri":"scene_mesh_textured_material_16_map_Kd.jpg.jpeg"},{"uri":"scene_mesh_textured_material_17_map_Kd.jpg.jpeg"}],"samplers":[{"magFilter":9729,"wrapS":10497,"wrapT":10497}],"accessors":[{"bufferView":0,"byteOffset":0,"count":126620,"componentType":5126,"type":"VEC3","min":[-0.15044000744819641,-0.1856590062379837,-0.052268300205469131],"max":[0.14147999882698059,0.15788601338863373,-0.016133101657032967]},{"bufferView":0,"byteOffset":1519440,"count":114454,"componentType":5126,"type":"VEC3","min":[-0.12518300116062164,-0.1855190098285675,-0.051163103431463242],"max":[0.14150100946426392,0.15786901116371155,-0.017116699367761612]},{"bufferView":0,"byteOffset":2892888,"count":113686,"componentType":5126,"type":"VEC3","min":[-0.1478009968996048,-0.16709700226783752,-0.051672101020812988],"max":[0.14150400459766388,0.15785400569438934,-0.016702700406312943]},{"bufferView":0,"byteOffset":4257120,"count":103921,"componentType":5126,"type":"VEC3","min":[-0.1378290057182312,-0.15140700340270996,-0.0512252040207386],"max":[0.14153900742530823,0.15791000425815582,-0.016831301152706146]},{"bufferView":0,"byteOffset":5504172,"count":92851,"componentType":5126,"type":"VEC3","min":[-0.14662601053714752,-0.15299500524997711,-0.051563501358032227],"max":[0.14153400063514709,0.15775302052497864,-0.017406601458787918]},{"bufferView":0,"byteOffset":6618384,"count":86834,"componentType":5126,"type":"VEC3","min":[-0.12892599403858185,-0.1856590062379837,-0.05198189988732338],"max":[0.13509000837802887,0.15783502161502838,-0.016555599868297577]},{"bufferView":0,"byteOffset":7660392,"count":78215,"componentType":5126,"type":"VEC3","min":[-0.13708001375198364,-0.15235899388790131,-0.05158039927482605],"max":[0.141526997089386,0.1577720046043396,-0.016188101842999458]},{"bufferView":0,"byteOffset":8598972,"count":65784,"componentType":5126,"type":"VEC3","min":[-0.11378500610589981,-0.15420600771903992,-0.05120830237865448],"max":[0.12252300977706909,0.15775701403617859,-0.016538001596927643]},{"bufferView":0,"byteOffset":9388380,"count":55038,"componentType":5126,"type":"VEC3","min":[-0.12406700849533081,-0.14850501716136932,-0.051235802471637726],"max":[0.11073800176382065,0.15789102017879486,-0.016558300703763962]},{"bufferView":0,"byteOffset":10048836,"count":55168,"componentType":5126,"type":"VEC3","min":[-0.10932600498199463,-0.15055400133132935,-0.051993101835250854],"max":[0.11977600306272507,0.1578810065984726,-0.017582399770617485]},{"bufferView":0,"byteOffset":10710852,"count":44316,"componentType":5126,"type":"VEC3","min":[-0.099515609443187714,-0.15816701948642731,-0.051934704184532166],"max":[0.11727800220251083,0.15787500143051147,-0.01786080002784729]},{"bufferView":0,"byteOffset":11242644,"count":37250,"componentType":5126,"type":"VEC3","min":[-0.10259200632572174,-0.15414901077747345,-0.051102202385663986],"max":[0.12097400426864624,0.15783600509166718,-0.016536200419068336]},{"bufferView":0,"byteOffset":11689644,"count":39431,"componentType":5126,"type":"VEC3","min":[-0.12880700826644897,-0.14395301043987274,-0.051332201808691025],"max":[0.078086309134960175,0.15784600377082825,-0.017976101487874985]},{"bufferView":0,"byteOffset":12162816,"count":33820,"componentType":5126,"type":"VEC3","min":[-0.086694709956645966,-0.14632801711559296,-0.051091704517602921],"max":[0.1415330171585083,0.15791100263595581,-0.017337799072265625]},{"bufferView":0,"byteOffset":12568656,"count":53222,"componentType":5126,"type":"VEC3","min":[-0.12502700090408325,-0.14473399519920349,-0.051277700811624527],"max":[0.14153900742530823,0.15791100263595581,-0.016557501628994942]},{"bufferView":0,"byteOffset":13207320,"count":85163,"componentType":5126,"type":"VEC3","min":[-0.15044000744819641,-0.18568801879882813,-0.052421800792217255],"max":[0.13121500611305237,0.15778800845146179,-0.029091902077198029]},{"bufferView":0,"byteOffset":14229276,"count":71951,"componentType":5126,"type":"VEC3","min":[-0.15044000744819641,-0.18571601808071136,-0.0518605038523674],"max":[0.14153900742530823,0.132285013794899,-0.03026910126209259]},{"bufferView":0,"byteOffset":15092688,"count":79615,"componentType":5126,"type":"VEC3","min":[-0.15044000744819641,-0.18573100864887238,-0.050961002707481384],"max":[0.14150999486446381,0.15775600075721741,-0.025884702801704407]},{"bufferView":1,"byteOffset":0,"count":126620,"componentType":5126,"type":"VEC2"},{"bufferView":1,"byteOffset":1012960,"count":114454,"componentType":5126,"type":"VEC2"},{"bufferView":1,"byteOffset":1928592,"count":113686,"componentType":5126,"type":"VEC2"},{"bufferView":1,"byteOffset":2838080,"count":103921,"componentType":5126,"type":"VEC2"},{"bufferView":1,"byteOffset":3669448,"count":92851,"componentType":5126,"type":"VEC2"},{"bufferView":1,"byteOffset":4412256,"count":86834,"componentType":5126,"type":"VEC2"},{"bufferView":1,"byteOffset":5106928,"count":78215,"componentType":5126,"type":"VEC2"},{"bufferView":1,"byteOffset":5732648,"count":65784,"componentType":5126,"type":"VEC2"},{"bufferView":1,"byteOffset":6258920,"count":55038,"componentType":5126,"type":"VEC2"},{"bufferView":1,"byteOffset":6699224,"count":55168,"componentType":5126,"type":"VEC2"},{"bufferView":1,"byteOffset":7140568,"count":44316,"componentType":5126,"type":"VEC2"},{"bufferView":1,"byteOffset":7495096,"count":37250,"componentType":5126,"type":"VEC2"},{"bufferView":1,"byteOffset":7793096,"count":39431,"componentType":5126,"type":"VEC2"},{"bufferView":1,"byteOffset":8108544,"count":33820,"componentType":5126,"type":"VEC2"},{"bufferView":1,"byteOffset":8379104,"count":53222,"componentType":5126,"type":"VEC2"},{"bufferView":1,"byteOffset":8804880,"count":85163,"componentType":5126,"type":"VEC2"},{"bufferView":1,"byteOffset":9486184,"count":71951,"componentType":5126,"type":"VEC2"},{"bufferView":1,"byteOffset":10061792,"count":79615,"componentType":5126,"type":"VEC2"},{"bufferView":2,"byteOffset":0,"count":305775,"componentType":5125,"type":"SCALAR"},{"bufferView":2,"byteOffset":1223100,"count":406824,"componentType":5125,"type":"SCALAR"},{"bufferView":2,"byteOffset":2850396,"count":461121,"componentType":5125,"type":"SCALAR"},{"bufferView":2,"byteOffset":4694880,"count":446607,"componentType":5125,"type":"SCALAR"},{"bufferView":2,"byteOffset":6481308,"count":415905,"componentType":5125,"type":"SCALAR"},{"bufferView":2,"byteOffset":8144928,"count":403656,"componentType":5125,"type":"SCALAR"},{"bufferView":2,"byteOffset":9759552,"count":373269,"componentType":5125,"type":"SCALAR"},{"bufferView":2,"byteOffset":11252628,"count":317295,"componentType":5125,"type":"SCALAR"},{"bufferView":2,"byteOffset":12521808,"count":268734,"componentType":5125,"type":"SCALAR"},{"bufferView":2,"byteOffset":13596744,"count":273735,"componentType":5125,"type":"SCALAR"},{"bufferView":2,"byteOffset":14691684,"count":222321,"componentType":5125,"type":"SCALAR"},{"bufferView":2,"byteOffset":15580968,"count":186960,"componentType":5125,"type":"SCALAR"},{"bufferView":2,"byteOffset":16328808,"count":202623,"componentType":5125,"type":"SCALAR"},{"bufferView":2,"byteOffset":17139300,"count":177783,"componentType":5125,"type":"SCALAR"},{"bufferView":2,"byteOffset":17850432,"count":290661,"componentType":5125,"type":"SCALAR"},{"bufferView":2,"byteOffset":19013076,"count":473199,"componentType":5125,"type":"SCALAR"},{"bufferView":2,"byteOffset":20905872,"count":406008,"componentType":5125,"type":"SCALAR"},{"bufferView":2,"byteOffset":22529904,"count":452067,"componentType":5125,"type":"SCALAR"}],"bufferViews":[{"buffer":0,"byteOffset":0,"byteLength":16048068,"byteStride":12,"target":34962},{"buffer":0,"byteOffset":16048068,"byteLength":10698712,"byteStride":8,"target":34962},{"buffer":0,"byteOffset":26746780,"byteLength":24338172,"target":34963}],"buffers":[{"byteLength":51084952,"uri":"Rektörlük Amfi.bin"}]}