{"asset":{"generator":"3D Builder","version":"2.0"},"scene":0,"scenes":[{"nodes":[0]}],"nodes":[{"mesh":0,"matrix":[0.99999994039535522,0,0,0,0,-1.1920928244535389E-7,-0.99999982118606567,0,0,0.99999982118606567,-1.1920928244535389E-7,0,2.1195399213524979E-8,0.10158897936344147,-1.2110351832461674E-8,1]}],"meshes":[{"primitives":[{"attributes":{"POSITION":0,"TEXCOORD_0":68},"mode":4,"indices":136,"material":0},{"attributes":{"POSITION":1,"TEXCOORD_0":69},"mode":4,"indices":137,"material":1},{"attributes":{"POSITION":2,"TEXCOORD_0":70},"mode":4,"indices":138,"material":2},{"attributes":{"POSITION":3,"TEXCOORD_0":71},"mode":4,"indices":139,"material":3},{"attributes":{"POSITION":4,"TEXCOORD_0":72},"mode":4,"indices":140,"material":4},{"attributes":{"POSITION":5,"TEXCOORD_0":73},"mode":4,"indices":141,"material":5},{"attributes":{"POSITION":6,"TEXCOORD_0":74},"mode":4,"indices":142,"material":6},{"attributes":{"POSITION":7,"TEXCOORD_0":75},"mode":4,"indices":143,"material":7},{"attributes":{"POSITION":8,"TEXCOORD_0":76},"mode":4,"indices":144,"material":8},{"attributes":{"POSITION":9,"TEXCOORD_0":77},"mode":4,"indices":145,"material":9},{"attributes":{"POSITION":10,"TEXCOORD_0":78},"mode":4,"indices":146,"material":10},{"attributes":{"POSITION":11,"TEXCOORD_0":79},"mode":4,"indices":147,"material":11},{"attributes":{"POSITION":12,"TEXCOORD_0":80},"mode":4,"indices":148,"material":12},{"attributes":{"POSITION":13,"TEXCOORD_0":81},"mode":4,"indices":149,"material":13},{"attributes":{"POSITION":14,"TEXCOORD_0":82},"mode":4,"indices":150,"material":14},{"attributes":{"POSITION":15,"TEXCOORD_0":83},"mode":4,"indices":151,"material":15},{"attributes":{"POSITION":16,"TEXCOORD_0":84},"mode":4,"indices":152,"material":16},{"attributes":{"POSITION":17,"TEXCOORD_0":85},"mode":4,"indices":153,"material":17},{"attributes":{"POSITION":18,"TEXCOORD_0":86},"mode":4,"indices":154,"material":18},{"attributes":{"POSITION":19,"TEXCOORD_0":87},"mode":4,"indices":155,"material":19},{"attributes":{"POSITION":20,"TEXCOORD_0":88},"mode":4,"indices":156,"material":20},{"attributes":{"POSITION":21,"TEXCOORD_0":89},"mode":4,"indices":157,"material":21},{"attributes":{"POSITION":22,"TEXCOORD_0":90},"mode":4,"indices":158,"material":22},{"attributes":{"POSITION":23,"TEXCOORD_0":91},"mode":4,"indices":159,"material":23},{"attributes":{"POSITION":24,"TEXCOORD_0":92},"mode":4,"indices":160,"material":24},{"attributes":{"POSITION":25,"TEXCOORD_0":93},"mode":4,"indices":161,"material":25},{"attributes":{"POSITION":26,"TEXCOORD_0":94},"mode":4,"indices":162,"material":26},{"attributes":{"POSITION":27,"TEXCOORD_0":95},"mode":4,"indices":163,"material":27},{"attributes":{"POSITION":28,"TEXCOORD_0":96},"mode":4,"indices":164,"material":28},{"attributes":{"POSITION":29,"TEXCOORD_0":97},"mode":4,"indices":165,"material":29},{"attributes":{"POSITION":30,"TEXCOORD_0":98},"mode":4,"indices":166,"material":30},{"attributes":{"POSITION":31,"TEXCOORD_0":99},"mode":4,"indices":167,"material":31},{"attributes":{"POSITION":32,"TEXCOORD_0":100},"mode":4,"indices":168,"material":32},{"attributes":{"POSITION":33,"TEXCOORD_0":101},"mode":4,"indices":169,"material":33},{"attributes":{"POSITION":34,"TEXCOORD_0":102},"mode":4,"indices":170,"material":34},{"attributes":{"POSITION":35,"TEXCOORD_0":103},"mode":4,"indices":171,"material":35},{"attributes":{"POSITION":36,"TEXCOORD_0":104},"mode":4,"indices":172,"material":36},{"attributes":{"POSITION":37,"TEXCOORD_0":105},"mode":4,"indices":173,"material":37},{"attributes":{"POSITION":38,"TEXCOORD_0":106},"mode":4,"indices":174,"material":38},{"attributes":{"POSITION":39,"TEXCOORD_0":107},"mode":4,"indices":175,"material":39},{"attributes":{"POSITION":40,"TEXCOORD_0":108},"mode":4,"indices":176,"material":40},{"attributes":{"POSITION":41,"TEXCOORD_0":109},"mode":4,"indices":177,"material":41},{"attributes":{"POSITION":42,"TEXCOORD_0":110},"mode":4,"indices":178,"material":42},{"attributes":{"POSITION":43,"TEXCOORD_0":111},"mode":4,"indices":179,"material":43},{"attributes":{"POSITION":44,"TEXCOORD_0":112},"mode":4,"indices":180,"material":44},{"attributes":{"POSITION":45,"TEXCOORD_0":113},"mode":4,"indices":181,"material":45},{"attributes":{"POSITION":46,"TEXCOORD_0":114},"mode":4,"indices":182,"material":46},{"attributes":{"POSITION":47,"TEXCOORD_0":115},"mode":4,"indices":183,"material":47},{"attributes":{"POSITION":48,"TEXCOORD_0":116},"mode":4,"indices":184,"material":48},{"attributes":{"POSITION":49,"TEXCOORD_0":117},"mode":4,"indices":185,"material":49},{"attributes":{"POSITION":50,"TEXCOORD_0":118},"mode":4,"indices":186,"material":50},{"attributes":{"POSITION":51,"TEXCOORD_0":119},"mode":4,"indices":187,"material":51},{"attributes":{"POSITION":52,"TEXCOORD_0":120},"mode":4,"indices":188,"material":52},{"attributes":{"POSITION":53,"TEXCOORD_0":121},"mode":4,"indices":189,"material":53},{"attributes":{"POSITION":54,"TEXCOORD_0":122},"mode":4,"indices":190,"material":54},{"attributes":{"POSITION":55,"TEXCOORD_0":123},"mode":4,"indices":191,"material":55},{"attributes":{"POSITION":56,"TEXCOORD_0":124},"mode":4,"indices":192,"material":56},{"attributes":{"POSITION":57,"TEXCOORD_0":125},"mode":4,"indices":193,"material":57},{"attributes":{"POSITION":58,"TEXCOORD_0":126},"mode":4,"indices":194,"material":58},{"attributes":{"POSITION":59,"TEXCOORD_0":127},"mode":4,"indices":195,"material":59},{"attributes":{"POSITION":60,"TEXCOORD_0":128},"mode":4,"indices":196,"material":60},{"attributes":{"POSITION":61,"TEXCOORD_0":129},"mode":4,"indices":197,"material":61},{"attributes":{"POSITION":62,"TEXCOORD_0":130},"mode":4,"indices":198,"material":62},{"attributes":{"POSITION":63,"TEXCOORD_0":131},"mode":4,"indices":199,"material":63},{"attributes":{"POSITION":64,"TEXCOORD_0":132},"mode":4,"indices":200,"material":64},{"attributes":{"POSITION":65,"TEXCOORD_0":133},"mode":4,"indices":201,"material":65},{"attributes":{"POSITION":66,"TEXCOORD_0":134},"mode":4,"indices":202,"material":66},{"attributes":{"POSITION":67,"TEXCOORD_0":135},"mode":4,"indices":203,"material":67}]}],"materials":[{"pbrMetallicRoughness":{"baseColorFactor":[1,1,1,1],"metallicFactor":0,"roughnessFactor":1,"baseColorTexture":{"index":0,"texCoord":0}},"alphaMode":"OPAQUE"},{"pbrMetallicRoughness":{"baseColorFactor":[1,1,1,1],"metallicFactor":0,"roughnessFactor":1,"baseColorTexture":{"index":1,"texCoord":0}},"alphaMode":"OPAQUE"},{"pbrMetallicRoughness":{"baseColorFactor":[1,1,1,1],"metallicFactor":0,"roughnessFactor":1,"baseColorTexture":{"index":2,"texCoord":0}},"alphaMode":"OPAQUE"},{"pbrMetallicRoughness":{"baseColorFactor":[1,1,1,1],"metallicFactor":0,"roughnessFactor":1,"baseColorTexture":{"index":3,"texCoord":0}},"alphaMode":"OPAQUE"},{"pbrMetallicRoughness":{"baseColorFactor":[1,1,1,1],"metallicFactor":0,"roughnessFactor":1,"baseColorTexture":{"index":4,"texCoord":0}},"alphaMode":"OPAQUE"},{"pbrMetallicRoughness":{"baseColorFactor":[1,1,1,1],"metallicFactor":0,"roughnessFactor":1,"baseColorTexture":{"index":5,"texCoord":0}},"alphaMode":"OPAQUE"},{"pbrMetallicRoughness":{"baseColorFactor":[1,1,1,1],"metallicFactor":0,"roughnessFactor":1,"baseColorTexture":{"index":6,"texCoord":0}},"alphaMode":"OPAQUE"},{"pbrMetallicRoughness":{"baseColorFactor":[1,1,1,1],"metallicFactor":0,"roughnessFactor":1,"baseColorTexture":{"index":7,"texCoord":0}},"alphaMode":"OPAQUE"},{"pbrMetallicRoughness":{"baseColorFactor":[1,1,1,1],"metallicFactor":0,"roughnessFactor":1,"baseColorTexture":{"index":8,"texCoord":0}},"alphaMode":"OPAQUE"},{"pbrMetallicRoughness":{"baseColorFactor":[1,1,1,1],"metallicFactor":0,"roughnessFactor":1,"baseColorTexture":{"index":9,"texCoord":0}},"alphaMode":"OPAQUE"},{"pbrMetallicRoughness":{"baseColorFactor":[1,1,1,1],"metallicFactor":0,"roughnessFactor":1,"baseColorTexture":{"index":10,"texCoord":0}},"alphaMode":"OPAQUE"},{"pbrMetallicRoughness":{"baseColorFactor":[1,1,1,1],"metallicFactor":0,"roughnessFactor":1,"baseColorTexture":{"index":11,"texCoord":0}},"alphaMode":"OPAQUE"},{"pbrMetallicRoughness":{"baseColorFactor":[1,1,1,1],"metallicFactor":0,"roughnessFactor":1,"baseColorTexture":{"index":12,"texCoord":0}},"alphaMode":"OPAQUE"},{"pbrMetallicRoughness":{"baseColorFactor":[1,1,1,1],"metallicFactor":0,"roughnessFactor":1,"baseColorTexture":{"index":13,"texCoord":0}},"alphaMode":"OPAQUE"},{"pbrMetallicRoughness":{"baseColorFactor":[1,1,1,1],"metallicFactor":0,"roughnessFactor":1,"baseColorTexture":{"index":14,"texCoord":0}},"alphaMode":"OPAQUE"},{"pbrMetallicRoughness":{"baseColorFactor":[1,1,1,1],"metallicFactor":0,"roughnessFactor":1,"baseColorTexture":{"index":15,"texCoord":0}},"alphaMode":"OPAQUE"},{"pbrMetallicRoughness":{"baseColorFactor":[1,1,1,1],"metallicFactor":0,"roughnessFactor":1,"baseColorTexture":{"index":16,"texCoord":0}},"alphaMode":"OPAQUE"},{"pbrMetallicRoughness":{"baseColorFactor":[1,1,1,1],"metallicFactor":0,"roughnessFactor":1,"baseColorTexture":{"index":17,"texCoord":0}},"alphaMode":"OPAQUE"},{"pbrMetallicRoughness":{"baseColorFactor":[1,1,1,1],"metallicFactor":0,"roughnessFactor":1,"baseColorTexture":{"index":18,"texCoord":0}},"alphaMode":"OPAQUE"},{"pbrMetallicRoughness":{"baseColorFactor":[1,1,1,1],"metallicFactor":0,"roughnessFactor":1,"baseColorTexture":{"index":19,"texCoord":0}},"alphaMode":"OPAQUE"},{"pbrMetallicRoughness":{"baseColorFactor":[1,1,1,1],"metallicFactor":0,"roughnessFactor":1,"baseColorTexture":{"index":20,"texCoord":0}},"alphaMode":"OPAQUE"},{"pbrMetallicRoughness":{"baseColorFactor":[1,1,1,1],"metallicFactor":0,"roughnessFactor":1,"baseColorTexture":{"index":21,"texCoord":0}},"alphaMode":"OPAQUE"},{"pbrMetallicRoughness":{"baseColorFactor":[1,1,1,1],"metallicFactor":0,"roughnessFactor":1,"baseColorTexture":{"index":22,"texCoord":0}},"alphaMode":"OPAQUE"},{"pbrMetallicRoughness":{"baseColorFactor":[1,1,1,1],"metallicFactor":0,"roughnessFactor":1,"baseColorTexture":{"index":23,"texCoord":0}},"alphaMode":"OPAQUE"},{"pbrMetallicRoughness":{"baseColorFactor":[1,1,1,1],"metallicFactor":0,"roughnessFactor":1,"baseColorTexture":{"index":24,"texCoord":0}},"alphaMode":"OPAQUE"},{"pbrMetallicRoughness":{"baseColorFactor":[1,1,1,1],"metallicFactor":0,"roughnessFactor":1,"baseColorTexture":{"index":25,"texCoord":0}},"alphaMode":"OPAQUE"},{"pbrMetallicRoughness":{"baseColorFactor":[1,1,1,1],"metallicFactor":0,"roughnessFactor":1,"baseColorTexture":{"index":26,"texCoord":0}},"alphaMode":"OPAQUE"},{"pbrMetallicRoughness":{"baseColorFactor":[1,1,1,1],"metallicFactor":0,"roughnessFactor":1,"baseColorTexture":{"index":27,"texCoord":0}},"alphaMode":"OPAQUE"},{"pbrMetallicRoughness":{"baseColorFactor":[1,1,1,1],"metallicFactor":0,"roughnessFactor":1,"baseColorTexture":{"index":28,"texCoord":0}},"alphaMode":"OPAQUE"},{"pbrMetallicRoughness":{"baseColorFactor":[1,1,1,1],"metallicFactor":0,"roughnessFactor":1,"baseColorTexture":{"index":29,"texCoord":0}},"alphaMode":"OPAQUE"},{"pbrMetallicRoughness":{"baseColorFactor":[1,1,1,1],"metallicFactor":0,"roughnessFactor":1,"baseColorTexture":{"index":30,"texCoord":0}},"alphaMode":"OPAQUE"},{"pbrMetallicRoughness":{"baseColorFactor":[1,1,1,1],"metallicFactor":0,"roughnessFactor":1,"baseColorTexture":{"index":31,"texCoord":0}},"alphaMode":"OPAQUE"},{"pbrMetallicRoughness":{"baseColorFactor":[1,1,1,1],"metallicFactor":0,"roughnessFactor":1,"baseColorTexture":{"index":32,"texCoord":0}},"alphaMode":"OPAQUE"},{"pbrMetallicRoughness":{"baseColorFactor":[1,1,1,1],"metallicFactor":0,"roughnessFactor":1,"baseColorTexture":{"index":33,"texCoord":0}},"alphaMode":"OPAQUE"},{"pbrMetallicRoughness":{"baseColorFactor":[1,1,1,1],"metallicFactor":0,"roughnessFactor":1,"baseColorTexture":{"index":34,"texCoord":0}},"alphaMode":"OPAQUE"},{"pbrMetallicRoughness":{"baseColorFactor":[1,1,1,1],"metallicFactor":0,"roughnessFactor":1,"baseColorTexture":{"index":35,"texCoord":0}},"alphaMode":"OPAQUE"},{"pbrMetallicRoughness":{"baseColorFactor":[1,1,1,1],"metallicFactor":0,"roughnessFactor":1,"baseColorTexture":{"index":36,"texCoord":0}},"alphaMode":"OPAQUE"},{"pbrMetallicRoughness":{"baseColorFactor":[1,1,1,1],"metallicFactor":0,"roughnessFactor":1,"baseColorTexture":{"index":37,"texCoord":0}},"alphaMode":"OPAQUE"},{"pbrMetallicRoughness":{"baseColorFactor":[1,1,1,1],"metallicFactor":0,"roughnessFactor":1,"baseColorTexture":{"index":38,"texCoord":0}},"alphaMode":"OPAQUE"},{"pbrMetallicRoughness":{"baseColorFactor":[1,1,1,1],"metallicFactor":0,"roughnessFactor":1,"baseColorTexture":{"index":39,"texCoord":0}},"alphaMode":"OPAQUE"},{"pbrMetallicRoughness":{"baseColorFactor":[1,1,1,1],"metallicFactor":0,"roughnessFactor":1,"baseColorTexture":{"index":40,"texCoord":0}},"alphaMode":"OPAQUE"},{"pbrMetallicRoughness":{"baseColorFactor":[1,1,1,1],"metallicFactor":0,"roughnessFactor":1,"baseColorTexture":{"index":41,"texCoord":0}},"alphaMode":"OPAQUE"},{"pbrMetallicRoughness":{"baseColorFactor":[1,1,1,1],"metallicFactor":0,"roughnessFactor":1,"baseColorTexture":{"index":42,"texCoord":0}},"alphaMode":"OPAQUE"},{"pbrMetallicRoughness":{"baseColorFactor":[1,1,1,1],"metallicFactor":0,"roughnessFactor":1,"baseColorTexture":{"index":43,"texCoord":0}},"alphaMode":"OPAQUE"},{"pbrMetallicRoughness":{"baseColorFactor":[1,1,1,1],"metallicFactor":0,"roughnessFactor":1,"baseColorTexture":{"index":44,"texCoord":0}},"alphaMode":"OPAQUE"},{"pbrMetallicRoughness":{"baseColorFactor":[1,1,1,1],"metallicFactor":0,"roughnessFactor":1,"baseColorTexture":{"index":45,"texCoord":0}},"alphaMode":"OPAQUE"},{"pbrMetallicRoughness":{"baseColorFactor":[1,1,1,1],"metallicFactor":0,"roughnessFactor":1,"baseColorTexture":{"index":46,"texCoord":0}},"alphaMode":"OPAQUE"},{"pbrMetallicRoughness":{"baseColorFactor":[1,1,1,1],"metallicFactor":0,"roughnessFactor":1,"baseColorTexture":{"index":47,"texCoord":0}},"alphaMode":"OPAQUE"},{"pbrMetallicRoughness":{"baseColorFactor":[1,1,1,1],"metallicFactor":0,"roughnessFactor":1,"baseColorTexture":{"index":48,"texCoord":0}},"alphaMode":"OPAQUE"},{"pbrMetallicRoughness":{"baseColorFactor":[1,1,1,1],"metallicFactor":0,"roughnessFactor":1,"baseColorTexture":{"index":49,"texCoord":0}},"alphaMode":"OPAQUE"},{"pbrMetallicRoughness":{"baseColorFactor":[1,1,1,1],"metallicFactor":0,"roughnessFactor":1,"baseColorTexture":{"index":50,"texCoord":0}},"alphaMode":"OPAQUE"},{"pbrMetallicRoughness":{"baseColorFactor":[1,1,1,1],"metallicFactor":0,"roughnessFactor":1,"baseColorTexture":{"index":51,"texCoord":0}},"alphaMode":"OPAQUE"},{"pbrMetallicRoughness":{"baseColorFactor":[1,1,1,1],"metallicFactor":0,"roughnessFactor":1,"baseColorTexture":{"index":52,"texCoord":0}},"alphaMode":"OPAQUE"},{"pbrMetallicRoughness":{"baseColorFactor":[1,1,1,1],"metallicFactor":0,"roughnessFactor":1,"baseColorTexture":{"index":53,"texCoord":0}},"alphaMode":"OPAQUE"},{"pbrMetallicRoughness":{"baseColorFactor":[1,1,1,1],"metallicFactor":0,"roughnessFactor":1,"baseColorTexture":{"index":54,"texCoord":0}},"alphaMode":"OPAQUE"},{"pbrMetallicRoughness":{"baseColorFactor":[1,1,1,1],"metallicFactor":0,"roughnessFactor":1,"baseColorTexture":{"index":55,"texCoord":0}},"alphaMode":"OPAQUE"},{"pbrMetallicRoughness":{"baseColorFactor":[1,1,1,1],"metallicFactor":0,"roughnessFactor":1,"baseColorTexture":{"index":56,"texCoord":0}},"alphaMode":"OPAQUE"},{"pbrMetallicRoughness":{"baseColorFactor":[1,1,1,1],"metallicFactor":0,"roughnessFactor":1,"baseColorTexture":{"index":57,"texCoord":0}},"alphaMode":"OPAQUE"},{"pbrMetallicRoughness":{"baseColorFactor":[1,1,1,1],"metallicFactor":0,"roughnessFactor":1,"baseColorTexture":{"index":58,"texCoord":0}},"alphaMode":"OPAQUE"},{"pbrMetallicRoughness":{"baseColorFactor":[1,1,1,1],"metallicFactor":0,"roughnessFactor":1,"baseColorTexture":{"index":59,"texCoord":0}},"alphaMode":"OPAQUE"},{"pbrMetallicRoughness":{"baseColorFactor":[1,1,1,1],"metallicFactor":0,"roughnessFactor":1,"baseColorTexture":{"index":60,"texCoord":0}},"alphaMode":"OPAQUE"},{"pbrMetallicRoughness":{"baseColorFactor":[1,1,1,1],"metallicFactor":0,"roughnessFactor":1,"baseColorTexture":{"index":61,"texCoord":0}},"alphaMode":"OPAQUE"},{"pbrMetallicRoughness":{"baseColorFactor":[1,1,1,1],"metallicFactor":0,"roughnessFactor":1,"baseColorTexture":{"index":62,"texCoord":0}},"alphaMode":"OPAQUE"},{"pbrMetallicRoughness":{"baseColorFactor":[1,1,1,1],"metallicFactor":0,"roughnessFactor":1,"baseColorTexture":{"index":63,"texCoord":0}},"alphaMode":"OPAQUE"},{"pbrMetallicRoughness":{"baseColorFactor":[1,1,1,1],"metallicFactor":0,"roughnessFactor":1,"baseColorTexture":{"index":64,"texCoord":0}},"alphaMode":"OPAQUE"},{"pbrMetallicRoughness":{"baseColorFactor":[1,1,1,1],"metallicFactor":0,"roughnessFactor":1,"baseColorTexture":{"index":65,"texCoord":0}},"alphaMode":"OPAQUE"},{"pbrMetallicRoughness":{"baseColorFactor":[1,1,1,1],"metallicFactor":0,"roughnessFactor":1,"baseColorTexture":{"index":66,"texCoord":0}},"alphaMode":"OPAQUE"},{"pbrMetallicRoughness":{"baseColorFactor":[1,1,1,1],"metallicFactor":0,"roughnessFactor":1,"baseColorTexture":{"index":67,"texCoord":0}},"alphaMode":"OPAQUE"}],"textures":[{"source":0,"sampler":0},{"source":1,"sampler":0},{"source":2,"sampler":0},{"source":3,"sampler":0},{"source":4,"sampler":0},{"source":5,"sampler":0},{"source":6,"sampler":0},{"source":7,"sampler":0},{"source":8,"sampler":0},{"source":9,"sampler":0},{"source":10,"sampler":0},{"source":11,"sampler":0},{"source":12,"sampler":0},{"source":13,"sampler":0},{"source":14,"sampler":0},{"source":15,"sampler":0},{"source":16,"sampler":0},{"source":17,"sampler":0},{"source":18,"sampler":0},{"source":19,"sampler":0},{"source":20,"sampler":0},{"source":21,"sampler":0},{"source":22,"sampler":0},{"source":23,"sampler":0},{"source":24,"sampler":0},{"source":25,"sampler":0},{"source":26,"sampler":0},{"source":27,"sampler":0},{"source":28,"sampler":0},{"source":29,"sampler":0},{"source":30,"sampler":0},{"source":31,"sampler":0},{"source":32,"sampler":0},{"source":33,"sampler":0},{"source":34,"sampler":0},{"source":35,"sampler":0},{"source":36,"sampler":0},{"source":37,"sampler":0},{"source":38,"sampler":0},{"source":39,"sampler":0},{"source":40,"sampler":0},{"source":41,"sampler":0},{"source":42,"sampler":0},{"source":43,"sampler":0},{"source":44,"sampler":0},{"source":45,"sampler":0},{"source":46,"sampler":0},{"source":47,"sampler":0},{"source":48,"sampler":0},{"source":49,"sampler":0},{"source":50,"sampler":0},{"source":51,"sampler":0},{"source":52,"sampler":0},{"source":53,"sampler":0},{"source":54,"sampler":0},{"source":55,"sampler":0},{"source":56,"sampler":0},{"source":57,"sampler":0},{"source":58,"sampler":0},{"source":59,"sampler":0},{"source":60,"sampler":0},{"source":61,"sampler":0},{"source":62,"sampler":0},{"source":63,"sampler":0},{"source":64,"sampler":0},{"source":65,"sampler":0},{"source":66,"sampler":0},{"source":67,"sampler":0}],"images":[{"uri":"scene_mesh_textured_material_00_map_Kd.jpg.jpeg"},{"uri":"scene_mesh_textured_material_01_map_Kd.jpg.jpeg"},{"uri":"scene_mesh_textured_material_02_map_Kd.jpg.jpeg"},{"uri":"scene_mesh_textured_material_03_map_Kd.jpg.jpeg"},{"uri":"scene_mesh_textured_material_04_map_Kd.jpg.jpeg"},{"uri":"scene_mesh_textured_material_05_map_Kd.jpg.jpeg"},{"uri":"scene_mesh_textured_material_06_map_Kd.jpg.jpeg"},{"uri":"scene_mesh_textured_material_07_map_Kd.jpg.jpeg"},{"uri":"scene_mesh_textured_material_08_map_Kd.jpg.jpeg"},{"uri":"scene_mesh_textured_material_09_map_Kd.jpg.jpeg"},{"uri":"scene_mesh_textured_material_10_map_Kd.jpg.jpeg"},{"uri":"scene_mesh_textured_material_11_map_Kd.jpg.jpeg"},{"uri":"scene_mesh_textured_material_12_map_Kd.jpg.jpeg"},{"uri":"scene_mesh_textured_material_13_map_Kd.jpg.jpeg"},{"uri":"scene_mesh_textured_material_14_map_Kd.jpg.jpeg"},{"uri":"scene_mesh_textured_material_15_map_Kd.jpg.jpeg"},{"uri":"scene_mesh_textured_material_16_map_Kd.jpg.jpeg"},{"uri":"scene_mesh_textured_material_17_map_Kd.jpg.jpeg"},{"uri":"scene_mesh_textured_material_18_map_Kd.jpg.jpeg"},{"uri":"scene_mesh_textured_material_19_map_Kd.jpg.jpeg"},{"uri":"scene_mesh_textured_material_20_map_Kd.jpg.jpeg"},{"uri":"scene_mesh_textured_material_21_map_Kd.jpg.jpeg"},{"uri":"scene_mesh_textured_material_22_map_Kd.jpg.jpeg"},{"uri":"scene_mesh_textured_material_23_map_Kd.jpg.jpeg"},{"uri":"scene_mesh_textured_material_24_map_Kd.jpg.jpeg"},{"uri":"scene_mesh_textured_material_25_map_Kd.jpg.jpeg"},{"uri":"scene_mesh_textured_material_26_map_Kd.jpg.jpeg"},{"uri":"scene_mesh_textured_material_27_map_Kd.jpg.jpeg"},{"uri":"scene_mesh_textured_material_28_map_Kd.jpg.jpeg"},{"uri":"scene_mesh_textured_material_29_map_Kd.jpg.jpeg"},{"uri":"scene_mesh_textured_material_30_map_Kd.jpg.jpeg"},{"uri":"scene_mesh_textured_material_31_map_Kd.jpg.jpeg"},{"uri":"scene_mesh_textured_material_32_map_Kd.jpg.jpeg"},{"uri":"scene_mesh_textured_material_33_map_Kd.jpg.jpeg"},{"uri":"scene_mesh_textured_material_34_map_Kd.jpg.jpeg"},{"uri":"scene_mesh_textured_material_35_map_Kd.jpg.jpeg"},{"uri":"scene_mesh_textured_material_36_map_Kd.jpg.jpeg"},{"uri":"scene_mesh_textured_material_37_map_Kd.jpg.jpeg"},{"uri":"scene_mesh_textured_material_38_map_Kd.jpg.jpeg"},{"uri":"scene_mesh_textured_material_39_map_Kd.jpg.jpeg"},{"uri":"scene_mesh_textured_material_40_map_Kd.jpg.jpeg"},{"uri":"scene_mesh_textured_material_41_map_Kd.jpg.jpeg"},{"uri":"scene_mesh_textured_material_42_map_Kd.jpg.jpeg"},{"uri":"scene_mesh_textured_material_43_map_Kd.jpg.jpeg"},{"uri":"scene_mesh_textured_material_44_map_Kd.jpg.jpeg"},{"uri":"scene_mesh_textured_material_45_map_Kd.jpg.jpeg"},{"uri":"scene_mesh_textured_material_46_map_Kd.jpg.jpeg"},{"uri":"scene_mesh_textured_material_47_map_Kd.jpg.jpeg"},{"uri":"scene_mesh_textured_material_48_map_Kd.jpg.jpeg"},{"uri":"scene_mesh_textured_material_49_map_Kd.jpg.jpeg"},{"uri":"scene_mesh_textured_material_50_map_Kd.jpg.jpeg"},{"uri":"scene_mesh_textured_material_51_map_Kd.jpg.jpeg"},{"uri":"scene_mesh_textured_material_52_map_Kd.jpg.jpeg"},{"uri":"scene_mesh_textured_material_53_map_Kd.jpg.jpeg"},{"uri":"scene_mesh_textured_material_54_map_Kd.jpg.jpeg"},{"uri":"scene_mesh_textured_material_55_map_Kd.jpg.jpeg"},{"uri":"scene_mesh_textured_material_56_map_Kd.jpg.jpeg"},{"uri":"scene_mesh_textured_material_57_map_Kd.jpg.jpeg"},{"uri":"scene_mesh_textured_material_58_map_Kd.jpg.jpeg"},{"uri":"scene_mesh_textured_material_59_map_Kd.jpg.jpeg"},{"uri":"scene_mesh_textured_material_60_map_Kd.jpg.jpeg"},{"uri":"scene_mesh_textured_material_61_map_Kd.jpg.jpeg"},{"uri":"scene_mesh_textured_material_62_map_Kd.jpg.jpeg"},{"uri":"scene_mesh_textured_material_63_map_Kd.jpg.jpeg"},{"uri":"scene_mesh_textured_material_64_map_Kd.jpg.jpeg"},{"uri":"scene_mesh_textured_material_65_map_Kd.jpg.jpeg"},{"uri":"scene_mesh_textured_material_66_map_Kd.jpg.jpeg"},{"uri":"scene_mesh_textured_material_67_map_Kd.jpg.jpeg"}],"samplers":[{"magFilter":9729,"wrapS":10497,"wrapT":10497}],"accessors":[{"bufferView":0,"byteOffset":0,"count":56993,"componentType":5126,"type":"VEC3","min":[-0.52525800466537476,-0.44538301229476929,-0.0996389091014862],"max":[0.46095004677772522,0.60712403059005737,-0.037781104445457458]},{"bufferView":0,"byteOffset":683916,"count":19592,"componentType":5126,"type":"VEC3","min":[-0.50633704662323,-0.41967099905014038,-0.09805750846862793],"max":[0.45404201745986938,0.59718799591064453,-0.0379692018032074]},{"bufferView":0,"byteOffset":919020,"count":17923,"componentType":5126,"type":"VEC3","min":[-0.50718402862548828,-0.414838045835495,-0.097540497779846191],"max":[0.44769001007080078,0.56873404979705811,-0.038697399199008942]},{"bufferView":0,"byteOffset":1134096,"count":17179,"componentType":5126,"type":"VEC3","min":[-0.50538599491119385,-0.42238301038742065,-0.096989408135414124],"max":[0.41960200667381287,0.550482988357544,-0.0399136021733284]},{"bufferView":0,"byteOffset":1340244,"count":21933,"componentType":5126,"type":"VEC3","min":[-0.50468903779983521,-0.41347402334213257,-0.0980479046702385],"max":[0.43703702092170715,0.58741497993469238,-0.039081200957298279]},{"bufferView":0,"byteOffset":1603440,"count":25125,"componentType":5126,"type":"VEC3","min":[-0.49646800756454468,-0.40774902701377869,-0.098127298057079315],"max":[0.42644003033638,0.57141304016113281,-0.042070403695106506]},{"bufferView":0,"byteOffset":1904940,"count":26602,"componentType":5126,"type":"VEC3","min":[-0.48302203416824341,-0.40761101245880127,-0.096607401967048645],"max":[0.44265902042388916,0.5555189847946167,-0.039141502231359482]},{"bufferView":0,"byteOffset":2224164,"count":27012,"componentType":5126,"type":"VEC3","min":[-0.49601200222969055,-0.38847699761390686,-0.098673604428768158],"max":[0.42768201231956482,0.5929570198059082,-0.038020700216293335]},{"bufferView":0,"byteOffset":2548308,"count":27590,"componentType":5126,"type":"VEC3","min":[-0.455191045999527,-0.39393702149391174,-0.096393309533596039],"max":[0.40575000643730164,0.52157098054885864,-0.041816700249910355]},{"bufferView":0,"byteOffset":2879388,"count":28086,"componentType":5126,"type":"VEC3","min":[-0.4634840190410614,-0.43020302057266235,-0.097047306597232819],"max":[0.40291300415992737,0.55377602577209473,-0.039293002337217331]},{"bufferView":0,"byteOffset":3216420,"count":28258,"componentType":5126,"type":"VEC3","min":[-0.44374603033065796,-0.38977202773094177,-0.097156308591365814],"max":[0.42343202233314514,0.548570990562439,-0.043777201324701309]},{"bufferView":0,"byteOffset":3555516,"count":27693,"componentType":5126,"type":"VEC3","min":[-0.46292603015899658,-0.39835503697395325,-0.096629209816455841],"max":[0.39343303442001343,0.53140503168106079,-0.043842203915119171]},{"bufferView":0,"byteOffset":3887832,"count":27055,"componentType":5126,"type":"VEC3","min":[-0.45740401744842529,-0.369378000497818,-0.097384907305240631],"max":[0.43641600012779236,0.5461890697479248,-0.038724001497030258]},{"bufferView":0,"byteOffset":4212492,"count":26872,"componentType":5126,"type":"VEC3","min":[-0.47370600700378418,-0.41242101788520813,-0.095905706286430359],"max":[0.39429903030395508,0.52701401710510254,-0.0393403023481369]},{"bufferView":0,"byteOffset":4534956,"count":27198,"componentType":5126,"type":"VEC3","min":[-0.45715400576591492,-0.37094002962112427,-0.095939598977565765],"max":[0.39018502831459045,0.51863902807235718,-0.045774899423122406]},{"bufferView":0,"byteOffset":4861332,"count":26748,"componentType":5126,"type":"VEC3","min":[-0.41001200675964355,-0.36488503217697144,-0.095905199646949768],"max":[0.39195200800895691,0.52324706315994263,-0.038962502032518387]},{"bufferView":0,"byteOffset":5182308,"count":26739,"componentType":5126,"type":"VEC3","min":[-0.42659202218055725,-0.37764501571655273,-0.098652102053165436],"max":[0.41621202230453491,0.58552801609039307,-0.047624502331018448]},{"bufferView":0,"byteOffset":5503176,"count":26486,"componentType":5126,"type":"VEC3","min":[-0.40228700637817383,-0.31151199340820313,-0.098431609570980072],"max":[0.39052802324295044,0.5739290714263916,-0.0473066009581089]},{"bufferView":0,"byteOffset":5821008,"count":28097,"componentType":5126,"type":"VEC3","min":[-0.47057300806045532,-0.34037703275680542,-0.0954883024096489],"max":[0.39683303236961365,0.516979992389679,-0.043191604316234589]},{"bufferView":0,"byteOffset":6158172,"count":26875,"componentType":5126,"type":"VEC3","min":[-0.4249110221862793,-0.31221902370452881,-0.095674701035022736],"max":[0.40148001909255981,0.534263014793396,-0.042150702327489853]},{"bufferView":0,"byteOffset":6480672,"count":26349,"componentType":5126,"type":"VEC3","min":[-0.39882102608680725,-0.3208240270614624,-0.0946045070886612],"max":[0.40664702653884888,0.5154690146446228,-0.042637299746274948]},{"bufferView":0,"byteOffset":6796860,"count":25238,"componentType":5126,"type":"VEC3","min":[-0.46511703729629517,-0.37182801961898804,-0.096424005925655365],"max":[0.42451003193855286,0.53463500738143921,-0.040948200970888138]},{"bufferView":0,"byteOffset":7099716,"count":26022,"componentType":5126,"type":"VEC3","min":[-0.38094201683998108,-0.38255399465560913,-0.096890203654766083],"max":[0.38076099753379822,0.54587501287460327,-0.042833805084228516]},{"bufferView":0,"byteOffset":7411980,"count":24831,"componentType":5126,"type":"VEC3","min":[-0.40763300657272339,-0.30461302399635315,-0.0961408019065857],"max":[0.41633200645446777,0.51382303237915039,-0.0382516011595726]},{"bufferView":0,"byteOffset":7709952,"count":24156,"componentType":5126,"type":"VEC3","min":[-0.41005703806877136,-0.328091025352478,-0.0959681048989296],"max":[0.38784900307655334,0.52113205194473267,-0.052252303808927536]},{"bufferView":0,"byteOffset":7999824,"count":24773,"componentType":5126,"type":"VEC3","min":[-0.39645904302597046,-0.36520403623580933,-0.095899008214473724],"max":[0.40102100372314453,0.52028900384902954,-0.042981702834367752]},{"bufferView":0,"byteOffset":8297100,"count":24132,"componentType":5126,"type":"VEC3","min":[-0.41936200857162476,-0.28401601314544678,-0.096034303307533264],"max":[0.42074501514434814,0.52641606330871582,-0.044384501874446869]},{"bufferView":0,"byteOffset":8586684,"count":24812,"componentType":5126,"type":"VEC3","min":[-0.45626303553581238,-0.37731802463531494,-0.096752002835273743],"max":[0.38410601019859314,0.52798902988433838,-0.03877200186252594]},{"bufferView":0,"byteOffset":8884428,"count":22768,"componentType":5126,"type":"VEC3","min":[-0.45634603500366211,-0.37564003467559814,-0.09547799825668335],"max":[0.39483502507209778,0.52386105060577393,-0.050022099167108536]},{"bufferView":0,"byteOffset":9157644,"count":21693,"componentType":5126,"type":"VEC3","min":[-0.37377101182937622,-0.31153100728988647,-0.095343008637428284],"max":[0.37565603852272034,0.5039139986038208,-0.04492410272359848]},{"bufferView":0,"byteOffset":9417960,"count":22658,"componentType":5126,"type":"VEC3","min":[-0.35866600275039673,-0.38285103440284729,-0.096996009349823],"max":[0.41453802585601807,0.5486290454864502,-0.05166100338101387]},{"bufferView":0,"byteOffset":9689856,"count":20585,"componentType":5126,"type":"VEC3","min":[-0.40103802084922791,-0.39569002389907837,-0.095299504697322845],"max":[0.35622701048851013,0.523853063583374,-0.041642501950263977]},{"bufferView":0,"byteOffset":9936876,"count":24215,"componentType":5126,"type":"VEC3","min":[-0.42987000942230225,-0.34585702419281006,-0.094603307545185089],"max":[0.36591300368309021,0.51858103275299072,-0.04444890096783638]},{"bufferView":0,"byteOffset":10227456,"count":20962,"componentType":5126,"type":"VEC3","min":[-0.40788501501083374,-0.35005500912666321,-0.095744006335735321],"max":[0.36873599886894226,0.52201598882675171,-0.047959804534912109]},{"bufferView":0,"byteOffset":10479000,"count":80708,"componentType":5126,"type":"VEC3","min":[-0.426813006401062,-0.39534902572631836,-0.0962212011218071],"max":[0.38721102476119995,0.52737504243850708,-0.041668102145195007]},{"bufferView":0,"byteOffset":11447496,"count":76071,"componentType":5126,"type":"VEC3","min":[-0.45484501123428345,-0.37130603194236755,-0.096781104803085327],"max":[0.46813702583312988,0.53465104103088379,-0.037709902971982956]},{"bufferView":0,"byteOffset":12360348,"count":69708,"componentType":5126,"type":"VEC3","min":[-0.36643201112747192,-0.32619401812553406,-0.0964784026145935],"max":[0.43693304061889648,0.54048705101013184,-0.041881002485752106]},{"bufferView":0,"byteOffset":13196844,"count":67370,"componentType":5126,"type":"VEC3","min":[-0.40203604102134705,-0.34976702928543091,-0.0956886038184166],"max":[0.37029999494552612,0.51466202735900879,-0.044747103005647659]},{"bufferView":0,"byteOffset":14005284,"count":65100,"componentType":5126,"type":"VEC3","min":[-0.42914301156997681,-0.33447200059890747,-0.096405409276485443],"max":[0.44235104322433472,0.50551503896713257,-0.04040050134062767]},{"bufferView":0,"byteOffset":14786484,"count":58697,"componentType":5126,"type":"VEC3","min":[-0.45658200979232788,-0.34871602058410645,-0.097209706902503967],"max":[0.41663104295730591,0.5572659969329834,-0.040274202823638916]},{"bufferView":0,"byteOffset":15490848,"count":62127,"componentType":5126,"type":"VEC3","min":[-0.48654600977897644,-0.33395403623580933,-0.0966671034693718],"max":[0.42805701494216919,0.53004306554794312,-0.04384700208902359]},{"bufferView":0,"byteOffset":16236372,"count":56679,"componentType":5126,"type":"VEC3","min":[-0.46083703637123108,-0.36947101354599,-0.096870698034763336],"max":[0.35646799206733704,0.517865002155304,-0.040035102516412735]},{"bufferView":0,"byteOffset":16916520,"count":65048,"componentType":5126,"type":"VEC3","min":[-0.45496603846549988,-0.3904070258140564,-0.097010105848312378],"max":[0.43226903676986694,0.547726035118103,-0.038741502910852432]},{"bufferView":0,"byteOffset":17697096,"count":58137,"componentType":5126,"type":"VEC3","min":[-0.43722701072692871,-0.38797003030776978,-0.097292304039001465],"max":[0.40012401342391968,0.54310601949691772,-0.042531203478574753]},{"bufferView":0,"byteOffset":18394740,"count":70517,"componentType":5126,"type":"VEC3","min":[-0.41543400287628174,-0.372935026884079,-0.097038604319095612],"max":[0.37724000215530396,0.53455203771591187,-0.043828301131725311]},{"bufferView":0,"byteOffset":19240944,"count":65061,"componentType":5126,"type":"VEC3","min":[-0.40609103441238403,-0.40480703115463257,-0.09678630530834198],"max":[0.38633403182029724,0.540332019329071,-0.040593802928924561]},{"bufferView":0,"byteOffset":20021676,"count":58722,"componentType":5126,"type":"VEC3","min":[-0.48441901803016663,-0.37854099273681641,-0.090319506824016571],"max":[0.3810880184173584,0.35869401693344116,-0.041662901639938354]},{"bufferView":0,"byteOffset":20726340,"count":59296,"componentType":5126,"type":"VEC3","min":[-0.41921603679656982,-0.4047660231590271,-0.0925913080573082],"max":[0.37865102291107178,0.4119810163974762,-0.041850902140140533]},{"bufferView":0,"byteOffset":21437892,"count":61213,"componentType":5126,"type":"VEC3","min":[-0.433010995388031,-0.339212030172348,-0.093413002789020538],"max":[0.366115003824234,0.46570703387260437,-0.043772101402282715]},{"bufferView":0,"byteOffset":22172448,"count":61101,"componentType":5126,"type":"VEC3","min":[-0.46901002526283264,-0.35886499285697937,-0.092472605407238],"max":[0.42072802782058716,0.42697200179100037,-0.052717100828886032]},{"bufferView":0,"byteOffset":22905660,"count":60074,"componentType":5126,"type":"VEC3","min":[-0.41484400629997253,-0.35712102055549622,-0.09761500358581543],"max":[0.37754902243614197,0.55677503347396851,-0.040397901087999344]},{"bufferView":0,"byteOffset":23626548,"count":52277,"componentType":5126,"type":"VEC3","min":[-0.44137901067733765,-0.41632401943206787,-0.094653107225894928],"max":[0.32899799942970276,0.50557905435562134,-0.037714000791311264]},{"bufferView":0,"byteOffset":24253872,"count":54292,"componentType":5126,"type":"VEC3","min":[-0.36318901181221008,-0.35059601068496704,-0.096173502504825592],"max":[0.28926700353622437,0.47401100397109985,-0.03752550482749939]},{"bufferView":0,"byteOffset":24905376,"count":56204,"componentType":5126,"type":"VEC3","min":[-0.47187000513076782,-0.38258001208305359,-0.09378109872341156],"max":[0.39436501264572144,0.46886304020881653,-0.047961104661226273]},{"bufferView":0,"byteOffset":25579824,"count":58879,"componentType":5126,"type":"VEC3","min":[-0.39899304509162903,-0.37492501735687256,-0.097183004021644592],"max":[0.35300800204277039,0.52755200862884521,-0.042482201009988785]},{"bufferView":0,"byteOffset":26286372,"count":59244,"componentType":5126,"type":"VEC3","min":[-0.34513300657272339,-0.36954003572463989,-0.09495910257101059],"max":[0.42024603486061096,0.45841902494430542,-0.043902304023504257]},{"bufferView":0,"byteOffset":26997300,"count":54310,"componentType":5126,"type":"VEC3","min":[-0.4500029981136322,-0.3432219922542572,-0.096282504498958588],"max":[0.45838302373886108,0.5443730354309082,-0.04163770005106926]},{"bufferView":0,"byteOffset":27649020,"count":41610,"componentType":5126,"type":"VEC3","min":[-0.37736999988555908,-0.3113190233707428,-0.0972043052315712],"max":[0.39373999834060669,0.55692499876022339,-0.037508901208639145]},{"bufferView":0,"byteOffset":28148340,"count":44395,"componentType":5126,"type":"VEC3","min":[-0.49090802669525146,-0.38121500611305237,-0.0889052003622055],"max":[0.36645802855491638,0.18653799593448639,-0.041737701743841171]},{"bufferView":0,"byteOffset":28681080,"count":50241,"componentType":5126,"type":"VEC3","min":[-0.44375503063201904,-0.37144002318382263,-0.094127006828784943],"max":[0.38161200284957886,0.40672901272773743,-0.040052000433206558]},{"bufferView":0,"byteOffset":29283972,"count":42600,"componentType":5126,"type":"VEC3","min":[-0.46104803681373596,-0.38440001010894775,-0.098975703120231628],"max":[0.36550500988960266,0.60049206018447876,-0.0379692018032074]},{"bufferView":0,"byteOffset":29795172,"count":43094,"componentType":5126,"type":"VEC3","min":[-0.24454201757907867,-0.41663902997970581,-0.099279299378395081],"max":[0.28461101651191711,0.60712403059005737,-0.041854601353406906]},{"bufferView":0,"byteOffset":30312300,"count":76628,"componentType":5126,"type":"VEC3","min":[-0.47109901905059814,-0.44394201040267944,-0.10158900171518326],"max":[0.46842500567436218,0.60713398456573486,-0.040189899504184723]},{"bufferView":0,"byteOffset":31231836,"count":48228,"componentType":5126,"type":"VEC3","min":[-0.51971602439880371,-0.44533804059028625,-0.0760468989610672],"max":[0.419404000043869,-0.061278503388166428,-0.041688501834869385]},{"bufferView":0,"byteOffset":31810572,"count":45012,"componentType":5126,"type":"VEC3","min":[-0.51857900619506836,-0.40149202942848206,-0.098874405026435852],"max":[0.44391104578971863,0.60713505744934082,-0.041821900755167007]},{"bufferView":0,"byteOffset":32350716,"count":51969,"componentType":5126,"type":"VEC3","min":[-0.52372997999191284,-0.44538301229476929,-0.091631107032299042],"max":[0.45083501935005188,0.41792702674865723,-0.037530001252889633]},{"bufferView":0,"byteOffset":32974344,"count":37013,"componentType":5126,"type":"VEC3","min":[-0.084514603018760681,-0.39520999789237976,-0.098156608641147614],"max":[0.31674900650978088,0.59270697832107544,-0.039349604398012161]},{"bufferView":0,"byteOffset":33418500,"count":4461,"componentType":5126,"type":"VEC3","min":[0.22800901532173157,-0.43033203482627869,-0.056326702237129211],"max":[0.3038800060749054,-0.35735103487968445,-0.047613900154829025]},{"bufferView":1,"byteOffset":0,"count":56993,"componentType":5126,"type":"VEC2"},{"bufferView":1,"byteOffset":455944,"count":19592,"componentType":5126,"type":"VEC2"},{"bufferView":1,"byteOffset":612680,"count":17923,"componentType":5126,"type":"VEC2"},{"bufferView":1,"byteOffset":756064,"count":17179,"componentType":5126,"type":"VEC2"},{"bufferView":1,"byteOffset":893496,"count":21933,"componentType":5126,"type":"VEC2"},{"bufferView":1,"byteOffset":1068960,"count":25125,"componentType":5126,"type":"VEC2"},{"bufferView":1,"byteOffset":1269960,"count":26602,"componentType":5126,"type":"VEC2"},{"bufferView":1,"byteOffset":1482776,"count":27012,"componentType":5126,"type":"VEC2"},{"bufferView":1,"byteOffset":1698872,"count":27590,"componentType":5126,"type":"VEC2"},{"bufferView":1,"byteOffset":1919592,"count":28086,"componentType":5126,"type":"VEC2"},{"bufferView":1,"byteOffset":2144280,"count":28258,"componentType":5126,"type":"VEC2"},{"bufferView":1,"byteOffset":2370344,"count":27693,"componentType":5126,"type":"VEC2"},{"bufferView":1,"byteOffset":2591888,"count":27055,"componentType":5126,"type":"VEC2"},{"bufferView":1,"byteOffset":2808328,"count":26872,"componentType":5126,"type":"VEC2"},{"bufferView":1,"byteOffset":3023304,"count":27198,"componentType":5126,"type":"VEC2"},{"bufferView":1,"byteOffset":3240888,"count":26748,"componentType":5126,"type":"VEC2"},{"bufferView":1,"byteOffset":3454872,"count":26739,"componentType":5126,"type":"VEC2"},{"bufferView":1,"byteOffset":3668784,"count":26486,"componentType":5126,"type":"VEC2"},{"bufferView":1,"byteOffset":3880672,"count":28097,"componentType":5126,"type":"VEC2"},{"bufferView":1,"byteOffset":4105448,"count":26875,"componentType":5126,"type":"VEC2"},{"bufferView":1,"byteOffset":4320448,"count":26349,"componentType":5126,"type":"VEC2"},{"bufferView":1,"byteOffset":4531240,"count":25238,"componentType":5126,"type":"VEC2"},{"bufferView":1,"byteOffset":4733144,"count":26022,"componentType":5126,"type":"VEC2"},{"bufferView":1,"byteOffset":4941320,"count":24831,"componentType":5126,"type":"VEC2"},{"bufferView":1,"byteOffset":5139968,"count":24156,"componentType":5126,"type":"VEC2"},{"bufferView":1,"byteOffset":5333216,"count":24773,"componentType":5126,"type":"VEC2"},{"bufferView":1,"byteOffset":5531400,"count":24132,"componentType":5126,"type":"VEC2"},{"bufferView":1,"byteOffset":5724456,"count":24812,"componentType":5126,"type":"VEC2"},{"bufferView":1,"byteOffset":5922952,"count":22768,"componentType":5126,"type":"VEC2"},{"bufferView":1,"byteOffset":6105096,"count":21693,"componentType":5126,"type":"VEC2"},{"bufferView":1,"byteOffset":6278640,"count":22658,"componentType":5126,"type":"VEC2"},{"bufferView":1,"byteOffset":6459904,"count":20585,"componentType":5126,"type":"VEC2"},{"bufferView":1,"byteOffset":6624584,"count":24215,"componentType":5126,"type":"VEC2"},{"bufferView":1,"byteOffset":6818304,"count":20962,"componentType":5126,"type":"VEC2"},{"bufferView":1,"byteOffset":6986000,"count":80708,"componentType":5126,"type":"VEC2"},{"bufferView":1,"byteOffset":7631664,"count":76071,"componentType":5126,"type":"VEC2"},{"bufferView":1,"byteOffset":8240232,"count":69708,"componentType":5126,"type":"VEC2"},{"bufferView":1,"byteOffset":8797896,"count":67370,"componentType":5126,"type":"VEC2"},{"bufferView":1,"byteOffset":9336856,"count":65100,"componentType":5126,"type":"VEC2"},{"bufferView":1,"byteOffset":9857656,"count":58697,"componentType":5126,"type":"VEC2"},{"bufferView":1,"byteOffset":10327232,"count":62127,"componentType":5126,"type":"VEC2"},{"bufferView":1,"byteOffset":10824248,"count":56679,"componentType":5126,"type":"VEC2"},{"bufferView":1,"byteOffset":11277680,"count":65048,"componentType":5126,"type":"VEC2"},{"bufferView":1,"byteOffset":11798064,"count":58137,"componentType":5126,"type":"VEC2"},{"bufferView":1,"byteOffset":12263160,"count":70517,"componentType":5126,"type":"VEC2"},{"bufferView":1,"byteOffset":12827296,"count":65061,"componentType":5126,"type":"VEC2"},{"bufferView":1,"byteOffset":13347784,"count":58722,"componentType":5126,"type":"VEC2"},{"bufferView":1,"byteOffset":13817560,"count":59296,"componentType":5126,"type":"VEC2"},{"bufferView":1,"byteOffset":14291928,"count":61213,"componentType":5126,"type":"VEC2"},{"bufferView":1,"byteOffset":14781632,"count":61101,"componentType":5126,"type":"VEC2"},{"bufferView":1,"byteOffset":15270440,"count":60074,"componentType":5126,"type":"VEC2"},{"bufferView":1,"byteOffset":15751032,"count":52277,"componentType":5126,"type":"VEC2"},{"bufferView":1,"byteOffset":16169248,"count":54292,"componentType":5126,"type":"VEC2"},{"bufferView":1,"byteOffset":16603584,"count":56204,"componentType":5126,"type":"VEC2"},{"bufferView":1,"byteOffset":17053216,"count":58879,"componentType":5126,"type":"VEC2"},{"bufferView":1,"byteOffset":17524248,"count":59244,"componentType":5126,"type":"VEC2"},{"bufferView":1,"byteOffset":17998200,"count":54310,"componentType":5126,"type":"VEC2"},{"bufferView":1,"byteOffset":18432680,"count":41610,"componentType":5126,"type":"VEC2"},{"bufferView":1,"byteOffset":18765560,"count":44395,"componentType":5126,"type":"VEC2"},{"bufferView":1,"byteOffset":19120720,"count":50241,"componentType":5126,"type":"VEC2"},{"bufferView":1,"byteOffset":19522648,"count":42600,"componentType":5126,"type":"VEC2"},{"bufferView":1,"byteOffset":19863448,"count":43094,"componentType":5126,"type":"VEC2"},{"bufferView":1,"byteOffset":20208200,"count":76628,"componentType":5126,"type":"VEC2"},{"bufferView":1,"byteOffset":20821224,"count":48228,"componentType":5126,"type":"VEC2"},{"bufferView":1,"byteOffset":21207048,"count":45012,"componentType":5126,"type":"VEC2"},{"bufferView":1,"byteOffset":21567144,"count":51969,"componentType":5126,"type":"VEC2"},{"bufferView":1,"byteOffset":21982896,"count":37013,"componentType":5126,"type":"VEC2"},{"bufferView":1,"byteOffset":22279000,"count":4461,"componentType":5126,"type":"VEC2"},{"bufferView":2,"byteOffset":0,"count":143490,"componentType":5125,"type":"SCALAR"},{"bufferView":2,"byteOffset":573960,"count":26145,"componentType":5125,"type":"SCALAR"},{"bufferView":2,"byteOffset":678540,"count":28191,"componentType":5125,"type":"SCALAR"},{"bufferView":2,"byteOffset":791304,"count":33177,"componentType":5125,"type":"SCALAR"},{"bufferView":2,"byteOffset":924012,"count":66060,"componentType":5125,"type":"SCALAR"},{"bufferView":2,"byteOffset":1188252,"count":91290,"componentType":5125,"type":"SCALAR"},{"bufferView":2,"byteOffset":1553412,"count":105906,"componentType":5125,"type":"SCALAR"},{"bufferView":2,"byteOffset":1977036,"count":112272,"componentType":5125,"type":"SCALAR"},{"bufferView":2,"byteOffset":2426124,"count":118059,"componentType":5125,"type":"SCALAR"},{"bufferView":2,"byteOffset":2898360,"count":124200,"componentType":5125,"type":"SCALAR"},{"bufferView":2,"byteOffset":3395160,"count":126450,"componentType":5125,"type":"SCALAR"},{"bufferView":2,"byteOffset":3900960,"count":126234,"componentType":5125,"type":"SCALAR"},{"bufferView":2,"byteOffset":4405896,"count":124992,"componentType":5125,"type":"SCALAR"},{"bufferView":2,"byteOffset":4905864,"count":125124,"componentType":5125,"type":"SCALAR"},{"bufferView":2,"byteOffset":5406360,"count":128352,"componentType":5125,"type":"SCALAR"},{"bufferView":2,"byteOffset":5919768,"count":126909,"componentType":5125,"type":"SCALAR"},{"bufferView":2,"byteOffset":6427404,"count":128250,"componentType":5125,"type":"SCALAR"},{"bufferView":2,"byteOffset":6940404,"count":127140,"componentType":5125,"type":"SCALAR"},{"bufferView":2,"byteOffset":7448964,"count":136275,"componentType":5125,"type":"SCALAR"},{"bufferView":2,"byteOffset":7994064,"count":130818,"componentType":5125,"type":"SCALAR"},{"bufferView":2,"byteOffset":8517336,"count":129159,"componentType":5125,"type":"SCALAR"},{"bufferView":2,"byteOffset":9033972,"count":124815,"componentType":5125,"type":"SCALAR"},{"bufferView":2,"byteOffset":9533232,"count":128709,"componentType":5125,"type":"SCALAR"},{"bufferView":2,"byteOffset":10048068,"count":122988,"componentType":5125,"type":"SCALAR"},{"bufferView":2,"byteOffset":10540020,"count":120150,"componentType":5125,"type":"SCALAR"},{"bufferView":2,"byteOffset":11020620,"count":123807,"componentType":5125,"type":"SCALAR"},{"bufferView":2,"byteOffset":11515848,"count":121176,"componentType":5125,"type":"SCALAR"},{"bufferView":2,"byteOffset":12000552,"count":125544,"componentType":5125,"type":"SCALAR"},{"bufferView":2,"byteOffset":12502728,"count":114849,"componentType":5125,"type":"SCALAR"},{"bufferView":2,"byteOffset":12962124,"count":109572,"componentType":5125,"type":"SCALAR"},{"bufferView":2,"byteOffset":13400412,"count":115968,"componentType":5125,"type":"SCALAR"},{"bufferView":2,"byteOffset":13864284,"count":104910,"componentType":5125,"type":"SCALAR"},{"bufferView":2,"byteOffset":14283924,"count":123732,"componentType":5125,"type":"SCALAR"},{"bufferView":2,"byteOffset":14778852,"count":107598,"componentType":5125,"type":"SCALAR"},{"bufferView":2,"byteOffset":15209244,"count":413655,"componentType":5125,"type":"SCALAR"},{"bufferView":2,"byteOffset":16863864,"count":390267,"componentType":5125,"type":"SCALAR"},{"bufferView":2,"byteOffset":18424932,"count":361566,"componentType":5125,"type":"SCALAR"},{"bufferView":2,"byteOffset":19871196,"count":349716,"componentType":5125,"type":"SCALAR"},{"bufferView":2,"byteOffset":21270060,"count":339312,"componentType":5125,"type":"SCALAR"},{"bufferView":2,"byteOffset":22627308,"count":307317,"componentType":5125,"type":"SCALAR"},{"bufferView":2,"byteOffset":23856576,"count":327531,"componentType":5125,"type":"SCALAR"},{"bufferView":2,"byteOffset":25166700,"count":301128,"componentType":5125,"type":"SCALAR"},{"bufferView":2,"byteOffset":26371212,"count":347475,"componentType":5125,"type":"SCALAR"},{"bufferView":2,"byteOffset":27761112,"count":308604,"componentType":5125,"type":"SCALAR"},{"bufferView":2,"byteOffset":28995528,"count":379689,"componentType":5125,"type":"SCALAR"},{"bufferView":2,"byteOffset":30514284,"count":347019,"componentType":5125,"type":"SCALAR"},{"bufferView":2,"byteOffset":31902360,"count":313632,"componentType":5125,"type":"SCALAR"},{"bufferView":2,"byteOffset":33156888,"count":319572,"componentType":5125,"type":"SCALAR"},{"bufferView":2,"byteOffset":34435176,"count":328095,"componentType":5125,"type":"SCALAR"},{"bufferView":2,"byteOffset":35747556,"count":329226,"componentType":5125,"type":"SCALAR"},{"bufferView":2,"byteOffset":37064460,"count":319350,"componentType":5125,"type":"SCALAR"},{"bufferView":2,"byteOffset":38341860,"count":282684,"componentType":5125,"type":"SCALAR"},{"bufferView":2,"byteOffset":39472596,"count":292533,"componentType":5125,"type":"SCALAR"},{"bufferView":2,"byteOffset":40642728,"count":300507,"componentType":5125,"type":"SCALAR"},{"bufferView":2,"byteOffset":41844756,"count":315198,"componentType":5125,"type":"SCALAR"},{"bufferView":2,"byteOffset":43105548,"count":322230,"componentType":5125,"type":"SCALAR"},{"bufferView":2,"byteOffset":44394468,"count":291501,"componentType":5125,"type":"SCALAR"},{"bufferView":2,"byteOffset":45560472,"count":224880,"componentType":5125,"type":"SCALAR"},{"bufferView":2,"byteOffset":46459992,"count":242316,"componentType":5125,"type":"SCALAR"},{"bufferView":2,"byteOffset":47429256,"count":270666,"componentType":5125,"type":"SCALAR"},{"bufferView":2,"byteOffset":48511920,"count":234420,"componentType":5125,"type":"SCALAR"},{"bufferView":2,"byteOffset":49449600,"count":238011,"componentType":5125,"type":"SCALAR"},{"bufferView":2,"byteOffset":50401644,"count":439764,"componentType":5125,"type":"SCALAR"},{"bufferView":2,"byteOffset":52160700,"count":272634,"componentType":5125,"type":"SCALAR"},{"bufferView":2,"byteOffset":53251236,"count":257556,"componentType":5125,"type":"SCALAR"},{"bufferView":2,"byteOffset":54281460,"count":294858,"componentType":5125,"type":"SCALAR"},{"bufferView":2,"byteOffset":55460892,"count":206739,"componentType":5125,"type":"SCALAR"},{"bufferView":2,"byteOffset":56287848,"count":25077,"componentType":5125,"type":"SCALAR"}],"bufferViews":[{"buffer":0,"byteOffset":0,"byteLength":33472032,"byteStride":12,"target":34962},{"buffer":0,"byteOffset":33472032,"byteLength":22314688,"byteStride":8,"target":34962},{"buffer":0,"byteOffset":55786720,"byteLength":56388156,"target":34963}],"buffers":[{"byteLength":112174876,"uri":"OKÜ YERLEŞKE GENEL PLAN.bin"}]}