{"asset":{"generator":"3D Builder","version":"2.0"},"scene":0,"scenes":[{"nodes":[0]}],"nodes":[{"mesh":0,"matrix":[0.99999994039535522,0,0,0,0,-1.1920928244535389E-7,-0.99999982118606567,0,0,0.99999982118606567,-1.1920928244535389E-7,0,0,0.0717586874961853,-8.5543030436952E-9,1]}],"meshes":[{"primitives":[{"attributes":{"POSITION":0,"TEXCOORD_0":12},"mode":4,"indices":24,"material":0},{"attributes":{"POSITION":1,"TEXCOORD_0":13},"mode":4,"indices":25,"material":1},{"attributes":{"POSITION":2,"TEXCOORD_0":14},"mode":4,"indices":26,"material":2},{"attributes":{"POSITION":3,"TEXCOORD_0":15},"mode":4,"indices":27,"material":3},{"attributes":{"POSITION":4,"TEXCOORD_0":16},"mode":4,"indices":28,"material":4},{"attributes":{"POSITION":5,"TEXCOORD_0":17},"mode":4,"indices":29,"material":5},{"attributes":{"POSITION":6,"TEXCOORD_0":18},"mode":4,"indices":30,"material":6},{"attributes":{"POSITION":7,"TEXCOORD_0":19},"mode":4,"indices":31,"material":7},{"attributes":{"POSITION":8,"TEXCOORD_0":20},"mode":4,"indices":32,"material":8},{"attributes":{"POSITION":9,"TEXCOORD_0":21},"mode":4,"indices":33,"material":9},{"attributes":{"POSITION":10,"COLOR_0":22},"mode":4,"indices":34},{"attributes":{"POSITION":11,"COLOR_0":23},"mode":4,"indices":35}]}],"materials":[{"pbrMetallicRoughness":{"baseColorFactor":[1,1,1,1],"metallicFactor":0,"roughnessFactor":1,"baseColorTexture":{"index":0,"texCoord":0}},"alphaMode":"OPAQUE"},{"pbrMetallicRoughness":{"baseColorFactor":[1,1,1,1],"metallicFactor":0,"roughnessFactor":1,"baseColorTexture":{"index":1,"texCoord":0}},"alphaMode":"OPAQUE"},{"pbrMetallicRoughness":{"baseColorFactor":[1,1,1,1],"metallicFactor":0,"roughnessFactor":1,"baseColorTexture":{"index":2,"texCoord":0}},"alphaMode":"OPAQUE"},{"pbrMetallicRoughness":{"baseColorFactor":[1,1,1,1],"metallicFactor":0,"roughnessFactor":1,"baseColorTexture":{"index":3,"texCoord":0}},"alphaMode":"OPAQUE"},{"pbrMetallicRoughness":{"baseColorFactor":[1,1,1,1],"metallicFactor":0,"roughnessFactor":1,"baseColorTexture":{"index":4,"texCoord":0}},"alphaMode":"OPAQUE"},{"pbrMetallicRoughness":{"baseColorFactor":[1,1,1,1],"metallicFactor":0,"roughnessFactor":1,"baseColorTexture":{"index":5,"texCoord":0}},"alphaMode":"OPAQUE"},{"pbrMetallicRoughness":{"baseColorFactor":[1,1,1,1],"metallicFactor":0,"roughnessFactor":1,"baseColorTexture":{"index":6,"texCoord":0}},"alphaMode":"OPAQUE"},{"pbrMetallicRoughness":{"baseColorFactor":[1,1,1,1],"metallicFactor":0,"roughnessFactor":1,"baseColorTexture":{"index":7,"texCoord":0}},"alphaMode":"OPAQUE"},{"pbrMetallicRoughness":{"baseColorFactor":[1,1,1,1],"metallicFactor":0,"roughnessFactor":1,"baseColorTexture":{"index":8,"texCoord":0}},"alphaMode":"OPAQUE"},{"pbrMetallicRoughness":{"baseColorFactor":[1,1,1,1],"metallicFactor":0,"roughnessFactor":1,"baseColorTexture":{"index":9,"texCoord":0}},"alphaMode":"OPAQUE"}],"textures":[{"source":0,"sampler":0},{"source":1,"sampler":0},{"source":2,"sampler":0},{"source":3,"sampler":0},{"source":4,"sampler":0},{"source":5,"sampler":0},{"source":6,"sampler":0},{"source":7,"sampler":0},{"source":8,"sampler":0},{"source":9,"sampler":0}],"images":[{"uri":"scene_mesh_textured_material_00_map_Kd.jpg.jpeg"},{"uri":"scene_mesh_textured_material_01_map_Kd.jpg.jpeg"},{"uri":"scene_mesh_textured_material_02_map_Kd.jpg.jpeg"},{"uri":"scene_mesh_textured_material_03_map_Kd.jpg.jpeg"},{"uri":"scene_mesh_textured_material_04_map_Kd.jpg.jpeg"},{"uri":"scene_mesh_textured_material_05_map_Kd.jpg.jpeg"},{"uri":"scene_mesh_textured_material_06_map_Kd.jpg.jpeg"},{"uri":"scene_mesh_textured_material_07_map_Kd.jpg.jpeg"},{"uri":"scene_mesh_textured_material_08_map_Kd.jpg.jpeg"},{"uri":"scene_mesh_textured_material_09_map_Kd.jpg.jpeg"}],"samplers":[{"magFilter":9729,"wrapS":10497,"wrapT":10497}],"accessors":[{"bufferView":0,"byteOffset":0,"count":98395,"componentType":5126,"type":"VEC3","min":[-0.17593701183795929,-0.093067079782485962,-0.071388199925422668],"max":[0.15461301803588867,0.10222500562667847,-0.038113098591566086]},{"bufferView":0,"byteOffset":1180740,"count":98717,"componentType":5126,"type":"VEC3","min":[-0.17593701183795929,-0.093184374272823334,-0.071030296385288239],"max":[0.15443900227546692,0.094234302639961243,-0.038132302463054657]},{"bufferView":0,"byteOffset":2365344,"count":88515,"componentType":5126,"type":"VEC3","min":[-0.16575101017951965,-0.089633405208587646,-0.071084201335906982],"max":[0.15454600751399994,0.090084478259086609,-0.038116004317998886]},{"bufferView":0,"byteOffset":3427524,"count":74482,"componentType":5126,"type":"VEC3","min":[-0.1670680046081543,-0.086689189076423645,-0.071063004434108734],"max":[0.15460000932216644,0.090534709393978119,-0.038074702024459839]},{"bufferView":0,"byteOffset":4321308,"count":61387,"componentType":5126,"type":"VEC3","min":[-0.15845701098442078,-0.0935339704155922,-0.0699470043182373],"max":[0.15451501309871674,0.095564387738704681,-0.038049302995204926]},{"bufferView":0,"byteOffset":5057952,"count":43739,"componentType":5126,"type":"VEC3","min":[-0.14716801047325134,-0.087457709014415741,-0.0701730027794838],"max":[0.15449000895023346,0.098263658583164215,-0.038077600300312042]},{"bufferView":0,"byteOffset":5582820,"count":40222,"componentType":5126,"type":"VEC3","min":[-0.17597201466560364,-0.092228896915912628,-0.0717587023973465],"max":[0.1544790118932724,0.10225000232458115,-0.039189402014017105]},{"bufferView":0,"byteOffset":6065484,"count":30454,"componentType":5126,"type":"VEC3","min":[-0.17594601213932037,-0.08834298700094223,-0.070716701447963715],"max":[0.15462200343608856,0.090362869203090668,-0.03811119869351387]},{"bufferView":0,"byteOffset":6430932,"count":27414,"componentType":5126,"type":"VEC3","min":[-0.17600300908088684,-0.096215017139911652,-0.071049302816390991],"max":[0.15453000366687775,0.10222899913787842,-0.042318504303693771]},{"bufferView":0,"byteOffset":6759900,"count":1427,"componentType":5126,"type":"VEC3","min":[-0.057809658348560333,-0.070732876658439636,-0.062630601227283478],"max":[-0.009947311133146286,-0.057929504662752151,-0.053220905363559723]},{"bufferView":0,"byteOffset":6777024,"count":1864,"componentType":5126,"type":"VEC3","min":[-0.17592230439186096,-0.096215017139911652,-0.06565326452255249],"max":[0.15433363616466522,-0.0478222630918026,-0.044646717607975006]},{"bufferView":0,"byteOffset":6799392,"count":1642,"componentType":5126,"type":"VEC3","min":[-0.13070324063301086,0.038609214127063751,-0.070420362055301666],"max":[0.15446051955223083,0.10222973674535751,-0.046184949576854706]},{"bufferView":1,"byteOffset":0,"count":98395,"componentType":5126,"type":"VEC2"},{"bufferView":1,"byteOffset":787160,"count":98717,"componentType":5126,"type":"VEC2"},{"bufferView":1,"byteOffset":1576896,"count":88515,"componentType":5126,"type":"VEC2"},{"bufferView":1,"byteOffset":2285016,"count":74482,"componentType":5126,"type":"VEC2"},{"bufferView":1,"byteOffset":2880872,"count":61387,"componentType":5126,"type":"VEC2"},{"bufferView":1,"byteOffset":3371968,"count":43739,"componentType":5126,"type":"VEC2"},{"bufferView":1,"byteOffset":3721880,"count":40222,"componentType":5126,"type":"VEC2"},{"bufferView":1,"byteOffset":4043656,"count":30454,"componentType":5126,"type":"VEC2"},{"bufferView":1,"byteOffset":4287288,"count":27414,"componentType":5126,"type":"VEC2"},{"bufferView":1,"byteOffset":4506600,"count":1427,"componentType":5126,"type":"VEC2"},{"bufferView":2,"byteOffset":0,"count":1864,"componentType":5121,"type":"VEC4","normalized":true},{"bufferView":2,"byteOffset":7456,"count":1642,"componentType":5121,"type":"VEC4","normalized":true},{"bufferView":3,"byteOffset":0,"count":250809,"componentType":5125,"type":"SCALAR"},{"bufferView":3,"byteOffset":1003236,"count":366300,"componentType":5125,"type":"SCALAR"},{"bufferView":3,"byteOffset":2468436,"count":364539,"componentType":5125,"type":"SCALAR"},{"bufferView":3,"byteOffset":3926592,"count":325971,"componentType":5125,"type":"SCALAR"},{"bufferView":3,"byteOffset":5230476,"count":278955,"componentType":5125,"type":"SCALAR"},{"bufferView":3,"byteOffset":6346296,"count":208713,"componentType":5125,"type":"SCALAR"},{"bufferView":3,"byteOffset":7181148,"count":195948,"componentType":5125,"type":"SCALAR"},{"bufferView":3,"byteOffset":7964940,"count":153654,"componentType":5125,"type":"SCALAR"},{"bufferView":3,"byteOffset":8579556,"count":145746,"componentType":5125,"type":"SCALAR"},{"bufferView":3,"byteOffset":9162540,"count":6531,"componentType":5125,"type":"SCALAR"},{"bufferView":3,"byteOffset":9188664,"count":5550,"componentType":5125,"type":"SCALAR"},{"bufferView":3,"byteOffset":9210864,"count":4896,"componentType":5125,"type":"SCALAR"}],"bufferViews":[{"buffer":0,"byteOffset":0,"byteLength":6819096,"byteStride":12,"target":34962},{"buffer":0,"byteOffset":6819096,"byteLength":4518016,"byteStride":8,"target":34962},{"buffer":0,"byteOffset":11337112,"byteLength":14024,"byteStride":4,"target":34962},{"buffer":0,"byteOffset":11351136,"byteLength":9230448,"target":34963}],"buffers":[{"byteLength":20581584,"uri":"C Blok lab.bin"}]}