{"asset":{"generator":"3D Builder","version":"2.0"},"scene":0,"scenes":[{"nodes":[0]}],"nodes":[{"mesh":0,"matrix":[1,0,0,0,0,-1.1920928955078125E-7,-0.99999988079071045,0,0,0.99999988079071045,-1.1920928955078125E-7,0,0.26968926191329956,0.7542538046836853,-0.13912209868431091,1]}],"meshes":[{"primitives":[{"attributes":{"POSITION":0,"TEXCOORD_0":5},"mode":4,"indices":10,"material":0},{"attributes":{"POSITION":1,"COLOR_0":6},"mode":4,"indices":11},{"attributes":{"POSITION":2,"COLOR_0":7},"mode":4,"indices":12},{"attributes":{"POSITION":3,"COLOR_0":8},"mode":4,"indices":13},{"attributes":{"POSITION":4,"COLOR_0":9},"mode":4,"indices":14}]}],"materials":[{"pbrMetallicRoughness":{"baseColorFactor":[1,1,1,1],"metallicFactor":0,"roughnessFactor":1,"baseColorTexture":{"index":0,"texCoord":0}},"alphaMode":"OPAQUE"}],"textures":[{"source":0,"sampler":0}],"images":[{"uri":"fabrika_yerleskesi_texture.jpg"}],"samplers":[{"magFilter":9729,"wrapS":10497,"wrapT":10497}],"accessors":[{"bufferView":0,"byteOffset":0,"count":377393,"componentType":5126,"type":"VEC3","min":[-1.5644999742507935,-1.159302830696106,-0.69743895530700684],"max":[0.49858272075653076,1.2889945507049561,-0.37199500203132629]},{"bufferView":0,"byteOffset":4528716,"count":736,"componentType":5126,"type":"VEC3","min":[-1.4931833744049072,-1.159302830696106,-0.6073186993598938],"max":[-0.51909065246582031,0.46599680185317993,-0.52785289287567139]},{"bufferView":0,"byteOffset":4537548,"count":475,"componentType":5126,"type":"VEC3","min":[-0.92936199903488159,1.2679641246795654,-0.70172959566116333],"max":[0.4985826313495636,1.2889945507049561,-0.65826499462127686]},{"bufferView":0,"byteOffset":4543248,"count":1241,"componentType":5126,"type":"VEC3","min":[0.49858224391937256,-1.1593021154403687,-0.70121198892593384],"max":[0.49858272075653076,1.2889945507049561,-0.5348823070526123]},{"bufferView":0,"byteOffset":4558140,"count":403,"componentType":5126,"type":"VEC3","min":[-0.51909077167510986,-1.159302830696106,-0.635133683681488],"max":[0.49858233332633972,-1.1593019962310791,-0.56632322072982788]},{"bufferView":1,"byteOffset":0,"count":377393,"componentType":5126,"type":"VEC2"},{"bufferView":2,"byteOffset":0,"count":736,"componentType":5121,"type":"VEC4","normalized":true},{"bufferView":2,"byteOffset":2944,"count":475,"componentType":5121,"type":"VEC4","normalized":true},{"bufferView":2,"byteOffset":4844,"count":1241,"componentType":5121,"type":"VEC4","normalized":true},{"bufferView":2,"byteOffset":9808,"count":403,"componentType":5121,"type":"VEC4","normalized":true},{"bufferView":3,"byteOffset":0,"count":1587201,"componentType":5125,"type":"SCALAR"},{"bufferView":3,"byteOffset":6348804,"count":2157,"componentType":5125,"type":"SCALAR"},{"bufferView":3,"byteOffset":6357432,"count":1410,"componentType":5125,"type":"SCALAR"},{"bufferView":3,"byteOffset":6363072,"count":3666,"componentType":5125,"type":"SCALAR"},{"bufferView":3,"byteOffset":6377736,"count":1158,"componentType":5125,"type":"SCALAR"}],"bufferViews":[{"buffer":0,"byteOffset":0,"byteLength":4562976,"byteStride":12,"target":34962},{"buffer":0,"byteOffset":4562976,"byteLength":3019144,"byteStride":8,"target":34962},{"buffer":0,"byteOffset":7582120,"byteLength":11420,"byteStride":4,"target":34962},{"buffer":0,"byteOffset":7593540,"byteLength":6382368,"target":34963}],"buffers":[{"byteLength":13975908,"uri":"fabrika_yerleskesi.bin"}]}