{
  "asset": {
    "generator": "3D Builder",
    "version": "2.0",
    "extras": {
      "textureLod": "F Blok.lod.json"
    }
  },
  "scene": 0,
  "scenes": [
    {
      "nodes": [
        0
      ]
    }
  ],
  "nodes": [
    {
      "mesh": 0,
      "matrix": [
        0.9999999403953552,
        0,
        0,
        0,
        0,
        -1.1920928244535389e-07,
        -0.9999998211860657,
        0,
        0,
        0.9999998211860657,
        -1.1920928244535389e-07,
        0,
        0,
        0.07267219573259354,
        -8.663201711556212e-09,
        1
      ]
    }
  ],
  "meshes": [
    {
      "primitives": [
        {
          "attributes": {
            "POSITION": 0,
            "TEXCOORD_0": 15
          },
          "mode": 4,
          "indices": 30,
          "material": 0
        },
        {
          "attributes": {
            "POSITION": 1,
            "TEXCOORD_0": 16
          },
          "mode": 4,
          "indices": 31,
          "material": 1
        },
        {
          "attributes": {
            "POSITION": 2,
            "TEXCOORD_0": 17
          },
          "mode": 4,
          "indices": 32,
          "material": 2
        },
        {
          "attributes": {
            "POSITION": 3,
            "TEXCOORD_0": 18
          },
          "mode": 4,
          "indices": 33,
          "material": 3
        },
        {
          "attributes": {
            "POSITION": 4,
            "TEXCOORD_0": 19
          },
          "mode": 4,
          "indices": 34,
          "material": 4
        },
        {
          "attributes": {
            "POSITION": 5,
            "TEXCOORD_0": 20
          },
          "mode": 4,
          "indices": 35,
          "material": 5
        },
        {
          "attributes": {
            "POSITION": 6,
            "TEXCOORD_0": 21
          },
          "mode": 4,
          "indices": 36,
          "material": 6
        },
        {
          "attributes": {
            "POSITION": 7,
            "TEXCOORD_0": 22
          },
          "mode": 4,
          "indices": 37,
          "material": 7
        },
        {
          "attributes": {
            "POSITION": 8,
            "TEXCOORD_0": 23
          },
          "mode": 4,
          "indices": 38,
          "material": 8
        },
        {
          "attributes": {
            "POSITION": 9,
            "TEXCOORD_0": 24
          },
          "mode": 4,
          "indices": 39,
          "material": 9
        },
        {
          "attributes": {
            "POSITION": 10,
            "TEXCOORD_0": 25
          },
          "mode": 4,
          "indices": 40,
          "material": 10
        },
        {
          "attributes": {
            "POSITION": 11,
            "COLOR_0": 26
          },
          "mode": 4,
          "indices": 41
        },
        {
          "attributes": {
            "POSITION": 12,
            "COLOR_0": 27
          },
          "mode": 4,
          "indices": 42
        },
        {
          "attributes": {
            "POSITION": 13,
            "COLOR_0": 28
          },
          "mode": 4,
          "indices": 43
        },
        {
          "attributes": {
            "POSITION": 14,
            "COLOR_0": 29
          },
          "mode": 4,
          "indices": 44
        }
      ]
    }
  ],
  "materials": [
    {
      "pbrMetallicRoughness": {
        "baseColorFactor": [
          1,
          1,
          1,
          1
        ],
        "metallicFactor": 0,
        "roughnessFactor": 1,
        "baseColorTexture": {
          "index": 0,
          "texCoord": 0
        }
      },
      "alphaMode": "OPAQUE"
    },
    {
      "pbrMetallicRoughness": {
        "baseColorFactor": [
          1,
          1,
          1,
          1
        ],
        "metallicFactor": 0,
        "roughnessFactor": 1,
        "baseColorTexture": {
          "index": 1,
          "texCoord": 0
        }
      },
      "alphaMode": "OPAQUE"
    },
    {
      "pbrMetallicRoughness": {
        "baseColorFactor": [
          1,
          1,
          1,
          1
        ],
        "metallicFactor": 0,
        "roughnessFactor": 1,
        "baseColorTexture": {
          "index": 2,
          "texCoord": 0
        }
      },
      "alphaMode": "OPAQUE"
    },
    {
      "pbrMetallicRoughness": {
        "baseColorFactor": [
          1,
          1,
          1,
          1
        ],
        "metallicFactor": 0,
        "roughnessFactor": 1,
        "baseColorTexture": {
          "index": 3,
          "texCoord": 0
        }
      },
      "alphaMode": "OPAQUE"
    },
    {
      "pbrMetallicRoughness": {
        "baseColorFactor": [
          1,
          1,
          1,
          1
        ],
        "metallicFactor": 0,
        "roughnessFactor": 1,
        "baseColorTexture": {
          "index": 4,
          "texCoord": 0
        }
      },
      "alphaMode": "OPAQUE"
    },
    {
      "pbrMetallicRoughness": {
        "baseColorFactor": [
          1,
          1,
          1,
          1
        ],
        "metallicFactor": 0,
        "roughnessFactor": 1,
        "baseColorTexture": {
          "index": 5,
          "texCoord": 0
        }
      },
      "alphaMode": "OPAQUE"
    },
    {
      "pbrMetallicRoughness": {
        "baseColorFactor": [
          1,
          1,
          1,
          1
        ],
        "metallicFactor": 0,
        "roughnessFactor": 1,
        "baseColorTexture": {
          "index": 6,
          "texCoord": 0
        }
      },
      "alphaMode": "OPAQUE"
    },
    {
      "pbrMetallicRoughness": {
        "baseColorFactor": [
          1,
          1,
          1,
          1
        ],
        "metallicFactor": 0,
        "roughnessFactor": 1,
        "baseColorTexture": {
          "index": 7,
          "texCoord": 0
        }
      },
      "alphaMode": "OPAQUE"
    },
    {
      "pbrMetallicRoughness": {
        "baseColorFactor": [
          1,
          1,
          1,
          1
        ],
        "metallicFactor": 0,
        "roughnessFactor": 1,
        "baseColorTexture": {
          "index": 8,
          "texCoord": 0
        }
      },
      "alphaMode": "OPAQUE"
    },
    {
      "pbrMetallicRoughness": {
        "baseColorFactor": [
          1,
          1,
          1,
          1
        ],
        "metallicFactor": 0,
        "roughnessFactor": 1,
        "baseColorTexture": {
          "index": 9,
          "texCoord": 0
        }
      },
      "alphaMode": "OPAQUE"
    },
    {
      "pbrMetallicRoughness": {
        "baseColorFactor": [
          1,
          1,
          1,
          1
        ],
        "metallicFactor": 0,
        "roughnessFactor": 1,
        "baseColorTexture": {
          "index": 10,
          "texCoord": 0
        }
      },
      "alphaMode": "OPAQUE"
    }
  ],
  "textures": [
    {
      "source": 0,
      "sampler": 0
    },
    {
      "source": 1,
      "sampler": 0
    },
    {
      "source": 2,
      "sampler": 0
    },
    {
      "source": 3,
      "sampler": 0
    },
    {
      "source": 4,
      "sampler": 0
    },
    {
      "source": 5,
      "sampler": 0
    },
    {
      "source": 6,
      "sampler": 0
    },
    {
      "source": 7,
      "sampler": 0
    },
    {
      "source": 8,
      "sampler": 0
    },
    {
      "source": 9,
      "sampler": 0
    },
    {
      "source": 10,
      "sampler": 0
    }
  ],
  "images": [
    {
      "uri": "F Blok.lod/low/image_000.jpg"
    },
    {
      "uri": "F Blok.lod/low/image_001.jpg"
    },
    {
      "uri": "F Blok.lod/low/image_002.jpg"
    },
    {
      "uri": "F Blok.lod/low/image_003.jpg"
    },
    {
      "uri": "F Blok.lod/low/image_004.jpg"
    },
    {
      "uri": "F Blok.lod/low/image_005.jpg"
    },
    {
      "uri": "F Blok.lod/low/image_006.jpg"
    },
    {
      "uri": "F Blok.lod/low/image_007.jpg"
    },
    {
      "uri": "F Blok.lod/low/image_008.jpg"
    },
    {
      "uri": "F Blok.lod/low/image_009.jpg"
    },
    {
      "uri": "F Blok.lod/low/image_010.jpg"
    }
  ],
  "samplers": [
    {
      "magFilter": 9729,
      "wrapS": 10497,
      "wrapT": 10497
    }
  ],
  "accessors": [
    {
      "bufferView": 0,
      "byteOffset": 0,
      "count": 73047,
      "componentType": 5126,
      "type": "VEC3",
      "min": [
        -0.1640310138463974,
        -0.1178654357790947,
        -0.06898556649684906
      ],
      "max": [
        0.1842460036277771,
        0.1391046941280365,
        -0.03682339936494827
      ]
    },
    {
      "bufferView": 0,
      "byteOffset": 876564,
      "count": 82387,
      "componentType": 5126,
      "type": "VEC3",
      "min": [
        -0.16512301564216614,
        -0.1175103411078453,
        -0.06900710612535477
      ],
      "max": [
        0.1845249980688095,
        0.1381390392780304,
        -0.036732498556375504
      ]
    },
    {
      "bufferView": 0,
      "byteOffset": 1865208,
      "count": 76318,
      "componentType": 5126,
      "type": "VEC3",
      "min": [
        -0.1655140370130539,
        -0.11586500704288483,
        -0.06906640529632568
      ],
      "max": [
        0.18448901176452637,
        0.13897401094436646,
        -0.03878120332956314
      ]
    },
    {
      "bufferView": 0,
      "byteOffset": 2781024,
      "count": 63421,
      "componentType": 5126,
      "type": "VEC3",
      "min": [
        -0.15856599807739258,
        -0.115153007209301,
        -0.06909714639186859
      ],
      "max": [
        0.18282002210617065,
        0.13910773396492004,
        -0.03668660297989845
      ]
    },
    {
      "bufferView": 0,
      "byteOffset": 3542076,
      "count": 47973,
      "componentType": 5126,
      "type": "VEC3",
      "min": [
        -0.16408808529376984,
        -0.1192648634314537,
        -0.06863369792699814
      ],
      "max": [
        0.18226484954357147,
        0.1382858157157898,
        -0.03836769983172417
      ]
    },
    {
      "bufferView": 0,
      "byteOffset": 4117752,
      "count": 35534,
      "componentType": 5126,
      "type": "VEC3",
      "min": [
        -0.16013699769973755,
        -0.12014632672071457,
        -0.0690246969461441
      ],
      "max": [
        0.18417701125144958,
        0.1385895162820816,
        -0.037876203656196594
      ]
    },
    {
      "bufferView": 0,
      "byteOffset": 4544160,
      "count": 32517,
      "componentType": 5126,
      "type": "VEC3",
      "min": [
        -0.16324001550674438,
        -0.12003234773874283,
        -0.06734339892864227
      ],
      "max": [
        0.17902295291423798,
        0.11748100817203522,
        -0.036705102771520615
      ]
    },
    {
      "bufferView": 0,
      "byteOffset": 4934364,
      "count": 30564,
      "componentType": 5126,
      "type": "VEC3",
      "min": [
        -0.14437800645828247,
        -0.11789630353450775,
        -0.06838569790124893
      ],
      "max": [
        0.18462000787258148,
        0.1274610012769699,
        -0.03668660297989845
      ]
    },
    {
      "bufferView": 0,
      "byteOffset": 5301132,
      "count": 22389,
      "componentType": 5126,
      "type": "VEC3",
      "min": [
        -0.1642330139875412,
        -0.10983400791883469,
        -0.06897668540477753
      ],
      "max": [
        0.16679401695728302,
        0.13585630059242249,
        -0.0377948023378849
      ]
    },
    {
      "bufferView": 0,
      "byteOffset": 5569800,
      "count": 16788,
      "componentType": 5126,
      "type": "VEC3",
      "min": [
        -0.1681613028049469,
        -0.11382200568914413,
        -0.06624240428209305
      ],
      "max": [
        0.1828739047050476,
        0.09978410601615906,
        -0.03793240338563919
      ]
    },
    {
      "bufferView": 0,
      "byteOffset": 5771256,
      "count": 2932,
      "componentType": 5126,
      "type": "VEC3",
      "min": [
        -0.01483750157058239,
        -0.09561020880937576,
        -0.060015302151441574
      ],
      "max": [
        0.18025200068950653,
        -0.00045420703827403486,
        -0.04711740463972092
      ]
    },
    {
      "bufferView": 0,
      "byteOffset": 5806440,
      "count": 1299,
      "componentType": 5126,
      "type": "VEC3",
      "min": [
        -0.0656602680683136,
        -0.05648808926343918,
        -0.06909714639186859
      ],
      "max": [
        0.1835504174232483,
        0.13910773396492004,
        -0.05523446574807167
      ]
    },
    {
      "bufferView": 0,
      "byteOffset": 5822028,
      "count": 1235,
      "componentType": 5126,
      "type": "VEC3",
      "min": [
        -0.16837520897388458,
        -0.12014632672071457,
        -0.06507892161607742
      ],
      "max": [
        0.12571309506893158,
        -0.0063889529556035995,
        -0.04998019337654114
      ]
    },
    {
      "bufferView": 0,
      "byteOffset": 5836848,
      "count": 970,
      "componentType": 5126,
      "type": "VEC3",
      "min": [
        -0.16837520897388458,
        -0.006502204574644566,
        -0.06863203644752502
      ],
      "max": [
        -0.06463366746902466,
        0.13910773396492004,
        -0.05658932775259018
      ]
    },
    {
      "bufferView": 0,
      "byteOffset": 5848488,
      "count": 276,
      "componentType": 5126,
      "type": "VEC3",
      "min": [
        0.1245914101600647,
        -0.12014632672071457,
        -0.06010513752698898
      ],
      "max": [
        0.18456663191318512,
        -0.06431756168603897,
        -0.050992075353860855
      ]
    },
    {
      "bufferView": 1,
      "byteOffset": 0,
      "count": 73047,
      "componentType": 5126,
      "type": "VEC2"
    },
    {
      "bufferView": 1,
      "byteOffset": 584376,
      "count": 82387,
      "componentType": 5126,
      "type": "VEC2"
    },
    {
      "bufferView": 1,
      "byteOffset": 1243472,
      "count": 76318,
      "componentType": 5126,
      "type": "VEC2"
    },
    {
      "bufferView": 1,
      "byteOffset": 1854016,
      "count": 63421,
      "componentType": 5126,
      "type": "VEC2"
    },
    {
      "bufferView": 1,
      "byteOffset": 2361384,
      "count": 47973,
      "componentType": 5126,
      "type": "VEC2"
    },
    {
      "bufferView": 1,
      "byteOffset": 2745168,
      "count": 35534,
      "componentType": 5126,
      "type": "VEC2"
    },
    {
      "bufferView": 1,
      "byteOffset": 3029440,
      "count": 32517,
      "componentType": 5126,
      "type": "VEC2"
    },
    {
      "bufferView": 1,
      "byteOffset": 3289576,
      "count": 30564,
      "componentType": 5126,
      "type": "VEC2"
    },
    {
      "bufferView": 1,
      "byteOffset": 3534088,
      "count": 22389,
      "componentType": 5126,
      "type": "VEC2"
    },
    {
      "bufferView": 1,
      "byteOffset": 3713200,
      "count": 16788,
      "componentType": 5126,
      "type": "VEC2"
    },
    {
      "bufferView": 1,
      "byteOffset": 3847504,
      "count": 2932,
      "componentType": 5126,
      "type": "VEC2"
    },
    {
      "bufferView": 2,
      "byteOffset": 0,
      "count": 1299,
      "componentType": 5121,
      "type": "VEC4",
      "normalized": true
    },
    {
      "bufferView": 2,
      "byteOffset": 5196,
      "count": 1235,
      "componentType": 5121,
      "type": "VEC4",
      "normalized": true
    },
    {
      "bufferView": 2,
      "byteOffset": 10136,
      "count": 970,
      "componentType": 5121,
      "type": "VEC4",
      "normalized": true
    },
    {
      "bufferView": 2,
      "byteOffset": 14016,
      "count": 276,
      "componentType": 5121,
      "type": "VEC4",
      "normalized": true
    },
    {
      "bufferView": 3,
      "byteOffset": 0,
      "count": 182085,
      "componentType": 5125,
      "type": "SCALAR"
    },
    {
      "bufferView": 3,
      "byteOffset": 728340,
      "count": 304806,
      "componentType": 5125,
      "type": "SCALAR"
    },
    {
      "bufferView": 3,
      "byteOffset": 1947564,
      "count": 310659,
      "componentType": 5125,
      "type": "SCALAR"
    },
    {
      "bufferView": 3,
      "byteOffset": 3190200,
      "count": 273150,
      "componentType": 5125,
      "type": "SCALAR"
    },
    {
      "bufferView": 3,
      "byteOffset": 4282800,
      "count": 213186,
      "componentType": 5125,
      "type": "SCALAR"
    },
    {
      "bufferView": 3,
      "byteOffset": 5135544,
      "count": 162897,
      "componentType": 5125,
      "type": "SCALAR"
    },
    {
      "bufferView": 3,
      "byteOffset": 5787132,
      "count": 151995,
      "componentType": 5125,
      "type": "SCALAR"
    },
    {
      "bufferView": 3,
      "byteOffset": 6395112,
      "count": 147057,
      "componentType": 5125,
      "type": "SCALAR"
    },
    {
      "bufferView": 3,
      "byteOffset": 6983340,
      "count": 108537,
      "componentType": 5125,
      "type": "SCALAR"
    },
    {
      "bufferView": 3,
      "byteOffset": 7417488,
      "count": 81588,
      "componentType": 5125,
      "type": "SCALAR"
    },
    {
      "bufferView": 3,
      "byteOffset": 7743840,
      "count": 14736,
      "componentType": 5125,
      "type": "SCALAR"
    },
    {
      "bufferView": 3,
      "byteOffset": 7802784,
      "count": 3882,
      "componentType": 5125,
      "type": "SCALAR"
    },
    {
      "bufferView": 3,
      "byteOffset": 7818312,
      "count": 3693,
      "componentType": 5125,
      "type": "SCALAR"
    },
    {
      "bufferView": 3,
      "byteOffset": 7833084,
      "count": 2871,
      "componentType": 5125,
      "type": "SCALAR"
    },
    {
      "bufferView": 3,
      "byteOffset": 7844568,
      "count": 810,
      "componentType": 5125,
      "type": "SCALAR"
    }
  ],
  "bufferViews": [
    {
      "buffer": 0,
      "byteOffset": 0,
      "byteLength": 5851800,
      "byteStride": 12,
      "target": 34962
    },
    {
      "buffer": 0,
      "byteOffset": 5851800,
      "byteLength": 3870960,
      "byteStride": 8,
      "target": 34962
    },
    {
      "buffer": 0,
      "byteOffset": 9722760,
      "byteLength": 15120,
      "byteStride": 4,
      "target": 34962
    },
    {
      "buffer": 0,
      "byteOffset": 9737880,
      "byteLength": 7847808,
      "target": 34963
    }
  ],
  "buffers": [
    {
      "byteLength": 17585688,
      "uri": "F Blok.bin"
    }
  ]
}
